<?xml version="1.0" encoding="iso-8859-1"?>
<!-- Generator: Adobe Illustrator 16.0.0, SVG Export Plug-In . SVG Version: 6.00 Build 0)  -->
<!DOCTYPE svg PUBLIC "-//W3C//DTD SVG 1.1//EN" "http://www.w3.org/Graphics/SVG/1.1/DTD/svg11.dtd">
<svg version="1.1" id="Capa_1" xmlns="http://www.w3.org/2000/svg" xmlns:xlink="http://www.w3.org/1999/xlink" x="0px" y="0px"
	 width="80px" height="80px" viewBox="0 0 80 80" style="enable-background:new 0 0 80 80;" xml:space="preserve">
<g>
	<g>
		<polygon points="22.136,53.639 30.746,53.639 30.746,52 30.746,34.118 30.746,32.021 22.136,32.021 		"/>
		<path d="M40,0C17.909,0,0,17.909,0,40c0,22.092,17.909,40,40,40c22.092,0,40-17.908,40-40C80,17.909,62.092,0,40,0z
			 M61.283,52.119c-0.061,0.502-0.487,0.88-0.993,0.88H32.746v1.64c0,0.552-0.448,1-1,1h-10.61c-0.552,0-1-0.448-1-1V31.021
			c0-0.552,0.448-1,1-1h10.609c0.552,0,1,0.448,1,1v2.097h7.951l3.409-11.385c0.127-0.423,0.517-0.713,0.959-0.713h4.289
			c0.552,0,1,0.448,1,1v11.098h12.093c0.286,0,0.559,0.123,0.747,0.336c0.191,0.214,0.279,0.499,0.246,0.783L61.283,52.119z"/>
	</g>
</g>
<g>
</g>
<g>
</g>
<g>
</g>
<g>
</g>
<g>
</g>
<g>
</g>
<g>
</g>
<g>
</g>
<g>
</g>
<g>
</g>
<g>
</g>
<g>
</g>
<g>
</g>
<g>
</g>
<g>
</g>
</svg>
