<?xml version="1.0" encoding="iso-8859-1"?>
<!-- Generator: Adobe Illustrator 16.0.0, SVG Export Plug-In . SVG Version: 6.00 Build 0)  -->
<!DOCTYPE svg PUBLIC "-//W3C//DTD SVG 1.1//EN" "http://www.w3.org/Graphics/SVG/1.1/DTD/svg11.dtd">
<svg version="1.1" id="Capa_1" xmlns="http://www.w3.org/2000/svg" xmlns:xlink="http://www.w3.org/1999/xlink" x="0px" y="0px"
	 width="83.816px" height="83.816px" viewBox="0 0 83.816 83.816" style="enable-background:new 0 0 83.816 83.816;" fill="#fd6d68"
	 xml:space="preserve">
<g>
	<path d="M70.178,56.514c1.428,0,2.59-1.16,2.59-2.588c0-1.43-1.162-2.59-2.59-2.59s-2.589,1.16-2.589,2.59
		C67.589,55.354,68.75,56.514,70.178,56.514z M70.178,53.338c0.324,0,0.59,0.264,0.59,0.588c0,0.326-0.266,0.59-0.59,0.59
		s-0.589-0.264-0.589-0.59C69.589,53.602,69.854,53.338,70.178,53.338z"/>
	<g>
		<path d="M41.908,0C18.762,0,0,18.763,0,41.909c0,23.146,18.763,41.907,41.908,41.907s41.909-18.764,41.909-41.908
			C83.816,18.763,65.054,0,41.908,0z M64.428,58.639c0,0.502-0.371,0.926-0.867,0.992l-26.25,3.5
			c-0.044,0.006-0.088,0.008-0.132,0.008c-0.024,0-0.049,0-0.073-0.002c-0.722-0.053-17.771-1.461-25.44-16.287
			c-0.04-0.08-0.07-0.162-0.089-0.248c-0.048-0.223-0.441-2.211,0.55-3.439c0.331-0.41,0.949-0.898,2.013-0.898
			c0.672,0,1.431,0.191,2.321,0.588c0.19,0.084,0.35,0.227,0.456,0.406c0.031,0.053,3.415,5.482,14.654,8.676
			c0.001-0.031,0.002-0.061,0.004-0.09c0.066-1.17,0.835-2.271,2.285-3.275c3.196-2.213,10.271-7.547,10.342-7.602
			c0.189-0.144,0.428-0.216,0.664-0.2l18.625,1.145c0.527,0.032,0.938,0.47,0.938,0.997V58.639z M74.303,59.014h-8.25
			c-0.553,0-1-0.447-1-1V42.908c0-0.552,0.447-1,1-1h8.25c0.553,0,1,0.448,1,1v15.105C75.303,58.566,74.855,59.014,74.303,59.014z"
			/>
		<rect x="67.053" y="43.908" width="6.25" height="13.105"/>
		<path d="M34.997,50.213c-0.892,0.615-1.398,1.234-1.427,1.742c-0.022,0.396,0.263,0.68,0.266,0.684
			c0.006,0.004,0.009,0.012,0.015,0.018c0.006,0.004,0.014,0.006,0.02,0.012c1.647,1.58,7.258-1.291,10.715-3.832
			c0.445-0.328,1.07-0.232,1.398,0.213c0.326,0.443,0.23,1.07-0.213,1.396c-1.266,0.932-6.588,4.668-10.487,4.668
			c-0.965,0-1.833-0.248-2.541-0.805c-12.002-2.965-16.427-8.402-17.36-9.742c-1.506-0.602-1.638-0.229-1.701-0.148
			c-0.261,0.32-0.26,1.121-0.175,1.641c6.909,13.176,22.286,14.945,23.647,15.076l25.272-3.371V43.848l-17.317-1.062
			C43.727,43.824,37.85,48.236,34.997,50.213z"/>
	</g>
</g>
<g>
</g>
<g>
</g>
<g>
</g>
<g>
</g>
<g>
</g>
<g>
</g>
<g>
</g>
<g>
</g>
<g>
</g>
<g>
</g>
<g>
</g>
<g>
</g>
<g>
</g>
<g>
</g>
<g>
</g>
</svg>
