<?xml version="1.0" encoding="iso-8859-1"?>
<!-- Generator: Adobe Illustrator 16.0.0, SVG Export Plug-In . SVG Version: 6.00 Build 0)  -->
<!DOCTYPE svg PUBLIC "-//W3C//DTD SVG 1.1//EN" "http://www.w3.org/Graphics/SVG/1.1/DTD/svg11.dtd">
<svg version="1.1" id="Capa_1" xmlns="http://www.w3.org/2000/svg" xmlns:xlink="http://www.w3.org/1999/xlink" x="0px" y="0px"
	 width="534.095px" height="534.094px" viewBox="0 0 534.095 534.094" style="enable-background:new 0 0 534.095 534.094;"
	 xml:space="preserve">
<g>
	<g>
		<path d="M240.973,30.159h4.298c2.993,0,5.4-2.418,5.4-5.4c0-2.979-2.407-5.4-5.4-5.4h-4.298c-2.985,0-5.4,2.42-5.4,5.4
			C235.572,27.747,237.988,30.159,240.973,30.159z"/>
		<path d="M256.163,30.159h33.74c2.995,0,5.399-2.418,5.399-5.4c0-2.979-2.404-5.4-5.399-5.4h-33.74c-2.985,0-5.4,2.42-5.4,5.4
			C250.763,27.747,253.188,30.159,256.163,30.159z"/>
		<path d="M267.05,304.035c-10.265,0-18.626,8.354-18.626,18.626s8.361,18.626,18.626,18.626c10.27,0,18.623-8.354,18.623-18.637
			C285.673,312.377,277.319,304.035,267.05,304.035z M267.05,330.487c-4.313,0-7.826-3.513-7.826-7.837
			c0-4.313,3.513-7.825,7.826-7.825c4.311,0,7.823,3.512,7.823,7.825C274.873,326.974,271.36,330.487,267.05,330.487z"/>
		<path d="M381.766,58.936c-2.658-1.366-5.906-0.309-7.277,2.339c-0.095,0.166-0.085,0.351-0.138,0.524V5.4
			c0-2.979-2.415-5.4-5.399-5.4H164.083c-2.992,0-5.4,2.42-5.4,5.4v54.805c-1.611-1.759-4.168-2.387-6.405-1.237
			C68.012,102.294,15.652,188.019,15.652,282.699c0,138.617,112.78,251.396,251.398,251.396
			c108.451,0,201.073-69.04,236.258-165.471c1.129-0.985,1.582-2.336,1.466-4.351c8.817-25.581,13.669-53.014,13.669-81.574
			C518.447,187.985,466.066,102.25,381.766,58.936z M376.418,154.491c-0.696-0.206-1.36-0.493-2.067-0.644v-27.479
			c5.917,2.207,10.168,7.868,10.168,14.547C384.519,146.778,381.223,151.833,376.418,154.491z M384.519,179.648
			c0,6.679-4.251,12.345-10.168,14.546v-27.48c0.718-0.15,1.371-0.438,2.067-0.644C381.223,168.724,384.519,173.784,384.519,179.648
			z M376.418,236.559c-0.696-0.206-1.35-0.491-2.067-0.643V208.43c5.917,2.209,10.168,7.868,10.168,14.552
			C384.519,228.851,381.223,233.906,376.418,236.559z M384.519,261.729c0,6.679-4.251,12.342-10.168,14.547v-27.48
			c0.718-0.153,1.371-0.438,2.067-0.644C381.223,250.805,384.519,255.857,384.519,261.729z M169.483,10.8h194.067v279.998
			l-12.329-22.344v-228.1c0-2.982-2.41-5.4-5.4-5.4H188.275c-2.988,0-5.4,2.417-5.4,5.4v253.26c0,2.984,2.413,5.399,5.4,5.399
			h100.008l20.213,45.131H169.483V10.8z M280.272,189.643c7.71,0,13.975,6.271,13.975,13.97c0,7.707-6.265,13.969-13.975,13.969
			c-7.709,0-13.969-6.267-13.969-13.969C266.304,195.914,272.563,189.643,280.272,189.643z M141.808,133.866
			c-0.503,8.208-2.729,21.167-9.758,26.546c-2.521,1.933-5.616,2.668-9.284,2.392c3.874-12.706,6.45-22.808,7.646-27.712
			C134.642,134.114,138.404,133.834,141.808,133.866z M48.345,382.778c0.999,1.055,2.354,1.74,3.876,1.74
			c0.168,0,0.34-0.011,0.519-0.021c2.974-0.284,5.152-2.921,4.86-5.885c-0.079-0.886-8.029-88.994,21.853-123.963
			c17.627-20.611,31.245-54.675,39.973-81.292c1.664,0.266,3.267,0.401,4.833,0.401c5.411,0,10.222-1.587,14.352-4.765
			c10.515-8.045,13.22-24.39,13.901-33.618c2.747,0.82,4.777,1.788,6.167,2.558v67.432c-12.005,47.688-2.637,73.817,0,79.792v64.389
			c0,0.042,0.021,0.074,0.021,0.111c0,0.036-0.021,0.079-0.016,0.11c0.011,0.343,1.139,34.741-19.467,44.36
			c-2.706,1.266-3.874,4.482-2.608,7.183c0.923,1.961,2.861,3.111,4.896,3.111c0.772,0,1.54-0.158,2.278-0.512
			c21.45-10.009,25.078-37.146,25.624-48.953H273.85c-26.051,32.832-93.611,119.78-101.938,148.679
			C117.303,480.031,73.14,436.747,48.345,382.778z M343.132,510.891c-6.539-12.234-27.295-51.648-37.567-77.319
			c-10.23-25.545-2.452-38.95-1.013-41.102l18.415-16.052l12.562,28.022c0.896,2.015,2.848,3.196,4.914,3.196
			c0.749,0,1.487-0.148,2.205-0.475c2.721-1.213,3.938-4.409,2.721-7.13l-48.621-108.507v-0.01l-30.146-67.273
			c3.932,2.607,8.625,4.145,13.671,4.145c12.646,0,22.982-9.55,24.469-21.798l35.67,64.671v1.402c0,2.337,1.481,4.262,3.555,5.037
			l4.867,8.827c-1.661-1.128-3.85-1.329-5.711-0.264l-22.581,12.909c-2.584,1.477-3.491,4.778-2.004,7.362
			c1.007,1.734,2.811,2.721,4.683,2.721c0.912,0,1.835-0.231,2.668-0.717l22.592-12.915c1.814-1.028,2.731-2.964,2.647-4.915
			l7.899,14.302c-1.287-0.211-2.658,0-3.828,0.78l-23.668,15.604c-2.488,1.646-3.174,4.988-1.529,7.478
			c1.034,1.582,2.764,2.426,4.515,2.426c1.018,0,2.057-0.29,2.974-0.886l23.657-15.604c0.943-0.606,1.519-1.503,1.919-2.462
			l14.007,25.37c0.996,1.793,2.815,2.8,4.735,2.8c0.875,0,1.771-0.211,2.595-0.675c2.604-1.45,3.554-4.725,2.13-7.33l-5.521-10.009
			c5.268-2.89,14.818-7.051,23.546-5.168c5.779,1.234,10.367,4.936,14.011,11.264c1.239,2.168,3.85,3.186,6.218,2.489
			c0.147-0.053,15.335-4.472,24.732,1.34c3.818,2.362,6.165,6.17,7.108,11.617c0.316,1.782,1.498,3.29,3.164,4.008
			c1.656,0.743,3.565,0.564,5.095-0.411c2.9-1.878,11.844-6.218,18.277-3.86c2.605,0.976,4.735,3.079,6.37,6.307
			c-0.785,1.351-0.98,3.043-0.358,4.614c1.619,4.271,2.869,7.547,4.05,10.01C468.229,433.456,412.705,487.635,343.132,510.891z"/>
	</g>
</g>
<g>
</g>
<g>
</g>
<g>
</g>
<g>
</g>
<g>
</g>
<g>
</g>
<g>
</g>
<g>
</g>
<g>
</g>
<g>
</g>
<g>
</g>
<g>
</g>
<g>
</g>
<g>
</g>
<g>
</g>
</svg>
