<svg xmlns="http://www.w3.org/2000/svg" viewBox="0 0 322.1 237"><defs><style>.a{isolation:isolate;}.b{fill:#6a6a6a;}.c{fill:#878787;}.d{fill:#9d9d9c;}.e{fill:#575756;}.f{fill:#303030;}.g{fill:#ffbd95;}.h{fill:#ffa47c;}.i{fill:#00233f;}.j{fill:#910d08;}.k{fill:#600;}.l{fill:#8d3b26;}.m{fill:#bb5e00;}.n{fill:#db6d00;}.o{fill:#002d56;}.p{fill:#a1c7ff;}.q{fill:#cee0ff;}.r{fill:#a7a9ac;}.s{fill:#fff;}.t{fill:#939598;}.u{fill:#2565c4;}.v{fill:#d63a3a;}.w{fill:#c7a496;}.x{fill:#0d298d;}.y{fill:#121214;}.z{fill:#0f2034;}.aa{fill:#f0c6b4;}.ab{fill:#369;}.ac{fill:#1d374e;}.ad{fill:#bcbec0;}.ae{fill:#c96;}.af{fill:#191919;}.ag{fill:#b8d1ff;}.ah{fill:#878786;}.ai{fill:#475055;}.aj{fill:#9d0600;}.ak{fill:#703321;}.al{fill:#2c2320;}.am{fill:#f2eee7;}.an{fill:#cb8159;}.ao{fill:#ffae8a;}.ap{fill:#900;}.aq{fill:#9a0808;}.ar{fill:#c33;}.as{fill:#cb2e0e;}.at{fill:#935709;}.au{fill:#dec3a1;}.av{fill:#8f3e00;}.aw{fill:#3b1b1d;}.ax{fill:#722c1d;}.ay{fill:#e0f2ff;}.az{fill:#515151;}.ba{fill:#afafae;}.bb{fill:#7c7c7c;}.bc{fill:#242424;}.bd{fill:#d6d6d6;}.be{fill:#474747;}.bf{fill:#bf8e62;}.bg,.bi{fill:#99a2a9;}.bh{fill:#424249;}.bi{mix-blend-mode:soft-light;}</style></defs><title>capedac-theme</title><g class="a"><polygon class="b" points="19.6 192.3 18.6 192.3 19.8 165.9 20.8 165.9 19.6 192.3"/><polygon class="b" points="44 193.6 43 193.5 44.1 167.1 45.2 167.2 44 193.6"/><polygon class="b" points="41.6 226.8 18.6 225.7 18.7 224.8 41.6 225.9 41.6 226.8"/><polygon class="c" points="42.9 229.6 41.4 229.5 41.8 221.8 43.3 221.9 42.9 229.6"/><polygon class="d" points="11.7 211 14.7 211.2 14.9 208.4 11.8 208.2 11.7 211"/><polygon class="e" points="9 193.3 11.4 193.4 11.6 192.3 9.2 192.2 9 193.3"/><polygon class="e" points="4.2 226 6.6 226.1 6.8 225.1 4.3 224.9 4.2 226"/><polygon class="e" points="7.6 202.8 10 203 10.2 201.9 7.8 201.8 7.6 202.8"/><polygon class="e" points="5.6 216.5 8 216.6 8.2 215.5 5.7 215.4 5.6 216.5"/><path class="f" d="M18,237.5h0a2,2,0,0,0,2-1.6L26.5,192a1.5,1.5,0,0,0-1.5-1.8h0a2,2,0,0,0-2,1.6l-6.5,43.9A1.5,1.5,0,0,0,18,237.5Z" transform="translate(-10.8 -4.5)"/><path class="d" d="M14.2,232.1h0a.6.6,0,0,0,.6-.5l5.4-35.9a.6.6,0,0,0-.5-.6h0a.7.7,0,0,0-.7.6l-5.3,35.8A.5.5,0,0,0,14.2,232.1Z" transform="translate(-10.8 -4.5)"/><path class="f" d="M54.3,241.5H51.1c-.2,0-.4-.3-.4-.6l.4-8.6a.5.5,0,0,1,.5-.5h3.1a.6.6,0,0,1,.5.6l-.4,8.7A.4.4,0,0,1,54.3,241.5Z" transform="translate(-10.8 -4.5)"/><polygon class="c" points="18.5 228.2 17 228.1 17.3 220.5 18.8 220.6 18.5 228.2"/><path class="f" d="M29.8,240.2l-3.1-.2a.5.5,0,0,1-.5-.5l.4-8.7a.5.5,0,0,1,.5-.5l3.2.2a.5.5,0,0,1,.4.5l-.4,8.7A.5.5,0,0,1,29.8,240.2Z" transform="translate(-10.8 -4.5)"/><polygon class="d" points="49.9 213 46.5 212.8 46.6 210 50 210.2 49.9 213"/><polygon class="e" points="14.7 211.8 46.4 213.4 46.6 209.4 14.9 207.7 14.7 211.8"/><polygon class="b" points="19.3 220.8 16.8 220.7 17.9 195.1 20.5 195.2 19.3 220.8"/><polygon class="b" points="43.7 222.1 41.3 221.9 42.4 196.3 44.9 196.4 43.7 222.1"/><path class="f" d="M55.7,201l-27.2-1.4a1.9,1.9,0,0,1-1.6-2h0a1.7,1.7,0,0,1,1.8-1.7l27.1,1.4a1.8,1.8,0,0,1,1.7,1.9h0A1.9,1.9,0,0,1,55.7,201Z" transform="translate(-10.8 -4.5)"/><path class="f" d="M54.1,181.8l-22.4-1.1a.6.6,0,0,1-.5-.6l.5-9.9c0-.3.2-.6.5-.5l22.4,1.1a.6.6,0,0,1,.5.6l-.4,9.9A.6.6,0,0,1,54.1,181.8Z" transform="translate(-10.8 -4.5)"/><polygon class="d" points="39.1 228.2 20.8 227.3 21 223.8 39.3 224.7 39.1 228.2"/><polygon class="f" points="40.8 216.4 20.2 215.4 20.4 211.2 41 212.2 40.8 216.4"/><polygon class="c" points="16.9 214.4 20.3 214.5 20.4 212 17 211.8 16.9 214.4"/><polygon class="c" points="40.8 215.6 44.2 215.8 44.3 213.2 40.9 213 40.8 215.6"/><polygon class="e" points="53.7 195.6 51.3 195.4 51.2 194.3 53.7 194.5 53.7 195.6"/><polygon class="e" points="55.7 228.6 53.3 228.5 53.2 227.4 55.6 227.5 55.7 228.6"/><polygon class="e" points="54.3 205.2 51.9 205.1 51.8 204 54.2 204.1 54.3 205.2"/><polygon class="e" points="55.1 219 52.7 218.9 52.6 217.8 55 217.9 55.1 219"/><path class="f" d="M62.9,239.8h0a2.2,2.2,0,0,1-1.9-1.9l-2.6-44.3a1.6,1.6,0,0,1,1.7-1.6h0a2.1,2.1,0,0,1,1.9,1.8l2.6,44.3A1.6,1.6,0,0,1,62.9,239.8Z" transform="translate(-10.8 -4.5)"/><path class="d" d="M67.2,234.8h0a.6.6,0,0,1-.6-.6L64.4,198a.6.6,0,0,1,.6-.6h0c.3.1.6.3.6.6l2.2,36.3A.6.6,0,0,1,67.2,234.8Z" transform="translate(-10.8 -4.5)"/><path class="f" d="M31.9,171H30.3c-.1,0-.2-.1-.2-.3l.2-4.4c0-.2.1-.3.2-.3h1.6a.3.3,0,0,1,.3.3l-.2,4.4A.3.3,0,0,1,31.9,171Z" transform="translate(-10.8 -4.5)"/><path class="f" d="M56.3,172H54.7a.3.3,0,0,1-.3-.3l.2-4.4a.3.3,0,0,1,.3-.3h1.6c.1,0,.2.2.2.3l-.2,4.4C56.5,171.9,56.4,172,56.3,172Z" transform="translate(-10.8 -4.5)"/><path class="g" d="M53.5,175.6c2.5-4.5,7.8-14.8,6.4-15.4-3.3-1.5-11-4.6-11-4.6v.2s-8.7-1.3-12.1-.1-.4,10.8,0,16.1c.1,1.2-1,6.6-2.1,11.2-.3,1.2-2.3,6.3-2.6,8.6-.1.7,6.5,4.2,8.4,4.7h0c2,.4,9.3.1,9.5-.6s.8-7.7,1-8.9C51.8,182.1,52.9,176.7,53.5,175.6Z" transform="translate(-10.8 -4.5)"/><path class="h" d="M36.8,156c-1.6-1-3.5.6-5.1,3.7L28.3,166l-3.4,6.9a3.2,3.2,0,0,0,1.1,3.8c1,.6,3.3-.6,4.9-2.6S40.9,158.6,36.8,156Z" transform="translate(-10.8 -4.5)"/><path class="g" d="M52.7,155c0-1,.5-5.8.5-5.8l-2.9-.7v.2l-2.9-.7s-1.4,4.5-1.8,5.4-3.1,1.8-3.1,1.8l5.4,4.1,6.9-1.3S52.7,156,52.7,155Z" transform="translate(-10.8 -4.5)"/><path class="h" d="M52.8,153.6c.1-1.4.3-3.5.4-4.2l-.2-.2-2.7-.7v.2l-2.9-.7s-1.4,4.5-1.8,5.4-3.1,1.8-3.1,1.8h.3L49,155a29.3,29.3,0,0,0,3.8-1.4Z" transform="translate(-10.8 -4.5)"/><path class="i" d="M33.9,185a55.1,55.1,0,0,0-2.7,6.9c-.2,1.2.1,3.4,1,4.2s9.7.9,9.7.9,8.5,1.9,10.7.1c.7-.5.9-2.2.8-3.1s-2.1-8.2-2.1-8.2Z" transform="translate(-10.8 -4.5)"/><path class="h" d="M27.5,173c-1.5-.5-2.9-.1-4.5,3.9s-4.1,13.7-4.1,13.7l2.3.8s5-7.3,6-9.4S31.2,174.2,27.5,173Z" transform="translate(-10.8 -4.5)"/><path class="h" d="M55,166.6c-.6-1.8.4-4.8,3.7-5.8a50.6,50.6,0,0,1,7.6-1.3l7.1-1.5a3,3,0,0,1,3.5,1.8c.3,1.2-1.3,3.2-3.6,4.4S56.6,171.4,55,166.6Z" transform="translate(-10.8 -4.5)"/><path class="j" d="M59.9,160.2c-.1-.8-2.1-.9-3.3-1.5a6.4,6.4,0,0,1-2.3-1.4s-4.1,2.9-5.8,2.8-6-5.4-6-5.4l-3.1.3c-2,.1-3.6-.1-3.5.7,1.3,5.5,0,15.7.1,17s-2.6,9.5-2.1,12.3l8.3,2.3h0l10,1.1c1.3-2.7,1-10.4,1.5-11.6s2.3-4.6,2.9-6.4c0,0,.1-1.9.9-6.6C57.9,161.7,60,160.5,59.9,160.2Z" transform="translate(-10.8 -4.5)"/><path class="k" d="M41.4,184.2c-1.8-3.6,3.4-5,5.1-5.2s4.2.6,5-.4-.5-2.5-1.2-2.7-5-2.7-5.7-2.7-5.6-2.3-6.3-3.2-1.7-7.7-1.7-7.7a39.1,39.1,0,0,0-.6,10.4c.2,1.3-3.4,12-3.5,14.7a24.5,24.5,0,0,1,8.6,0c3.3.5,11.1,1,11.1,1S41.9,185,41.4,184.2Z" transform="translate(-10.8 -4.5)"/><path class="g" d="M73.3,162.8c-1.3-.7-2-2.1-.2-6.6a136,136,0,0,1,6.4-12.7l2.1,1.1s-1.2,7.9-2.1,10.4S76.6,164.6,73.3,162.8Z" transform="translate(-10.8 -4.5)"/><path class="g" d="M45.4,142.8c-.9,3.9-.4,8.3,1.9,9.1s7.2-1.3,8.4-5.1.1-7.7-3.1-9S46.4,138.8,45.4,142.8Z" transform="translate(-10.8 -4.5)"/><path class="l" d="M46.5,140.1s3.6-1.1,6.2,2.8c.5.9-1,3.6-.8,3.9s1.5-2,1.5-1.7c.4,2.6-.9,5.3-.6,5.4s4.4-4,3.8-8.1a6,6,0,0,0-5.2-5.4A4.9,4.9,0,0,0,46.5,140.1Z" transform="translate(-10.8 -4.5)"/><path class="g" d="M52.6,146.1c-.6,1-1,2.5-.5,2.8s1.3-.4,1.8-1.4.6-2.1.1-2.3S53.1,145.1,52.6,146.1Z" transform="translate(-10.8 -4.5)"/><path class="h" d="M18.9,190.6a23,23,0,0,1-1.2,3.1c-.3.6.9,5.3,1.4,5.4s.1-3.3.6-4,2.1-1.8,1.9-2.7l-.3-1.4Z" transform="translate(-10.8 -4.5)"/><path class="g" d="M83.3,142.7l-.4.9a1.8,1.8,0,0,1-2.5,1.2h0a2.1,2.1,0,0,1-1.1-2.7l.3-.9a1.9,1.9,0,0,1,2.5-1.2h0A2.3,2.3,0,0,1,83.3,142.7Z" transform="translate(-10.8 -4.5)"/><path class="m" d="M84.9,136.1c-.2,4.3-3.7,7.7-7.7,7.5a7.7,7.7,0,0,1-7-8.3,7.5,7.5,0,0,1,7.7-7.5C81.9,128,85.1,131.7,84.9,136.1Z" transform="translate(-10.8 -4.5)"/><path class="n" d="M84.1,135.3a6.8,6.8,0,0,1-7,6.8c-3.7-.1-6.6-3.5-6.4-7.5a7,7,0,0,1,7-6.9A7.1,7.1,0,0,1,84.1,135.3Z" transform="translate(-10.8 -4.5)"/><path class="g" d="M82.4,144.4a17.3,17.3,0,0,0,1.4-1.9l.3-.4c0-.1.1-.3.1-.4l.2-.3a.6.6,0,0,0,.1-.4l.3-.3c.2-.4,0-.5.1-.6s.2-.5.2-.6a6.6,6.6,0,0,0-.6-2c-.2-.2-.8-1.5-.9-1.5s-.5.5-.2,1.3a8,8,0,0,1,.4,1.6,6.5,6.5,0,0,0-1.2-1.1c-.2-.1-.4.1-.5.3a3.4,3.4,0,0,0,.3.8l-.5.2c-.2.4.2.8.3,1s-.5-.1-.5.1,1,1.5.6,1.9A2.4,2.4,0,0,0,82.4,144.4Z" transform="translate(-10.8 -4.5)"/><path class="i" d="M32.5,198.5c.5,2,1.4,4.5,5,4.7s4.1-4.5,4.3-5.4-1.1-5.3-3.8-5.6S31.7,195.3,32.5,198.5Z" transform="translate(-10.8 -4.5)"/><path class="g" d="M35,224.4s-1-15.4-1.2-17.8-1.2-14.7,3.1-15.1,5.1,4.8,4.6,10.8S39.2,225,39.2,225Z" transform="translate(-10.8 -4.5)"/><path class="i" d="M51.7,199.9c-.7,2-1.7,4.3-5.4,4.1s-3.7-4.8-3.7-5.7,1.5-5.2,4.2-5.2S52.8,196.7,51.7,199.9Z" transform="translate(-10.8 -4.5)"/><path class="g" d="M47.3,225.1s2.4-15.2,2.7-17.6,2.6-14.5-1.7-15.3-5.5,4.2-5.5,10.3.3,22.8.3,22.8Z" transform="translate(-10.8 -4.5)"/><path class="o" d="M32.5,198.5c.7-1.4,2-5.5,4.8-5.8s4.3,4.2,4.5,5.1,1.6-8.8-5-9.1-5.5,5.4-5.5,5.4Z" transform="translate(-10.8 -4.5)"/><path class="o" d="M51.7,199.9c-.6-1.5-1.5-5.7-4.3-6.3s-4.6,3.7-4.8,4.7-.9-9,5.6-8.7,5.1,6,5.1,6Z" transform="translate(-10.8 -4.5)"/><path class="p" d="M39.3,224.6l-4.3-.2-2.3,2.3a4,4,0,0,0-1,2.9,1.3,1.3,0,0,0,1,1.1c1.3.2,3.8.4,4.4-.1a23.4,23.4,0,0,1,2.2-1.3,1.6,1.6,0,0,0,.6-1.3Z" transform="translate(-10.8 -4.5)"/><path class="p" d="M43.1,224.8l4.2.3,2.3,2.4a4.2,4.2,0,0,1,.7,3.1,1,1,0,0,1-1,.9c-1.3.1-3.8.1-4.4-.5s-1.6-1.1-2-1.5a2,2,0,0,1-.6-1.4Z" transform="translate(-10.8 -4.5)"/><path class="q" d="M35,224.4l-.5-7.4a7.2,7.2,0,0,0,3.5.6l2-.3-.7,7.3Z" transform="translate(-10.8 -4.5)"/><path class="q" d="M47.4,225.2l1-7.3a10.5,10.5,0,0,1-3,0l-2.5-.6.2,7.5Z" transform="translate(-10.8 -4.5)"/><path class="f" d="M35.5,224.4s-1.6,1.8-1.6,1.9.8.3,1.1.2a25.4,25.4,0,0,0,2.3-2Z" transform="translate(-10.8 -4.5)"/><path class="f" d="M45.2,225l2.2,2.1c.1.1.9.1.9-.1a15.6,15.6,0,0,0-1.3-1.9Z" transform="translate(-10.8 -4.5)"/><path class="o" d="M39.1,224.9l-4-.3a.3.3,0,0,1-.3-.3h0a.3.3,0,0,1,.3-.3l4.1.3c.1,0,.3.2.2.3h0A.3.3,0,0,1,39.1,224.9Z" transform="translate(-10.8 -4.5)"/><path class="o" d="M47.3,225.2l-4.1-.2c-.2-.1-.3-.2-.3-.4h0l.3-.3,4.1.3a.3.3,0,0,1,.3.3h0A.3.3,0,0,1,47.3,225.2Z" transform="translate(-10.8 -4.5)"/><path class="o" d="M34.6,217.8v1a14.7,14.7,0,0,0,2.3.6,18,18,0,0,0,2.9-.1v-1.1a11.2,11.2,0,0,1-5.3-.4Z" transform="translate(-10.8 -4.5)"/><path class="o" d="M42.9,219.1a17.1,17.1,0,0,0,2.9.7,11.1,11.1,0,0,0,2.4-.1v-1.1a9.4,9.4,0,0,1-2.5.2,18.3,18.3,0,0,1-2.9-.6Z" transform="translate(-10.8 -4.5)"/><path class="r" d="M163.4,89.2a.9.9,0,0,1,1,0l16.3,9.4v-.8h1.1v1.6l-.2.3-28,16.1a.9.9,0,0,1-1,0l-17.2-9.9c-.1-.1-.2-.2-.2-.3V104l1.3.7Z" transform="translate(-10.8 -4.5)"/><path class="s" d="M163.4,87.6h1l17.2,10c.3.1.3.4,0,.5l-28,16.2a.9.9,0,0,1-1,0l-17.2-9.9c-.3-.2-.3-.5,0-.6Z" transform="translate(-10.8 -4.5)"/><polygon class="t" points="159.6 88.3 158.3 89 156.9 88.3 158.3 87.5 159.6 88.3"/><polygon class="t" points="157.1 89.7 155.8 90.5 154.5 89.7 155.8 88.9 157.1 89.7"/><polygon class="t" points="161.5 89.4 160.1 90.1 158.8 89.4 160.1 88.6 161.5 89.4"/><polygon class="t" points="163.1 90.3 159.8 92.2 158.5 91.4 161.8 89.5 163.1 90.3"/><polygon class="t" points="164.7 91.2 161.4 93.1 160.1 92.4 163.4 90.5 164.7 91.2"/><polygon class="t" points="166.3 92.2 163 94.1 161.7 93.3 165 91.4 166.3 92.2"/><polygon class="t" points="155.5 90.7 154.1 91.4 152.8 90.7 154.1 89.9 155.5 90.7"/><polygon class="t" points="153.8 91.6 152.5 92.4 151.2 91.6 152.5 90.8 153.8 91.6"/><polygon class="t" points="152.2 92.6 150.9 93.3 149.5 92.6 150.9 91.8 152.2 92.6"/><polygon class="t" points="159.5 90.5 158.2 91.3 156.9 90.5 158.2 89.8 159.5 90.5"/><polygon class="t" points="157.8 91.5 156.5 92.2 155.2 91.5 156.5 90.7 157.8 91.5"/><polygon class="t" points="156.2 92.4 154.9 93.2 153.6 92.4 154.9 91.7 156.2 92.4"/><polygon class="t" points="154.5 93.4 153.2 94.1 151.9 93.4 153.2 92.6 154.5 93.4"/><polygon class="t" points="152.9 94.3 151.6 95.1 150.3 94.3 151.6 93.6 152.9 94.3"/><polygon class="t" points="151.2 95.3 149.9 96 148.6 95.3 149.9 94.5 151.2 95.3"/><polygon class="t" points="149.6 96.2 148.3 97 147 96.2 148.3 95.5 149.6 96.2"/><polygon class="t" points="147.9 97.2 146.6 97.9 145.3 97.2 146.6 96.4 147.9 97.2"/><polygon class="t" points="146.3 98.1 145 98.9 143.7 98.1 145 97.3 146.3 98.1"/><polygon class="t" points="144.7 99 143.4 99.8 142.1 99 143.4 98.3 144.7 99"/><polygon class="t" points="143.1 100 141.7 100.8 140.4 100 141.7 99.2 143.1 100"/><polygon class="t" points="141.4 101 140.1 101.7 138.8 101 140.1 100.2 141.4 101"/><polygon class="t" points="139.8 101.9 138.5 102.7 137.1 101.9 138.5 101.1 139.8 101.9"/><polygon class="t" points="138.1 102.9 136.8 103.6 135.5 102.9 136.8 102.1 138.1 102.9"/><polygon class="t" points="161.1 93.3 159.7 94.1 158.4 93.3 159.7 92.6 161.1 93.3"/><polygon class="t" points="159.4 94.3 158.1 95 156.8 94.3 158.1 93.5 159.4 94.3"/><polygon class="t" points="157.8 95.2 156.4 96 155.1 95.2 156.4 94.5 157.8 95.2"/><polygon class="t" points="156.1 96.2 154.8 97 153.5 96.2 154.8 95.4 156.1 96.2"/><polygon class="t" points="154.5 97.1 153.2 97.9 151.8 97.1 153.2 96.4 154.5 97.1"/><polygon class="t" points="152.8 98.1 151.5 98.8 150.2 98.1 151.5 97.3 152.8 98.1"/><polygon class="t" points="151.2 99 149.9 99.8 148.5 99 149.9 98.3 151.2 99"/><polygon class="t" points="149.6 100 148.3 100.7 146.9 100 148.3 99.2 149.6 100"/><polygon class="t" points="147.9 100.9 146.6 101.7 145.3 100.9 146.6 100.2 147.9 100.9"/><polygon class="t" points="146.3 101.9 145 102.6 143.7 101.9 145 101.1 146.3 101.9"/><polygon class="t" points="144.6 102.8 143.3 103.6 142 102.8 143.3 102.1 144.6 102.8"/><polygon class="t" points="143 103.8 141.7 104.5 140.4 103.8 141.7 103 143 103.8"/><polygon class="t" points="141.3 104.7 140 105.5 138.7 104.7 140 104 141.3 104.7"/><polygon class="t" points="162.7 94.3 161.4 95 160.1 94.3 161.4 93.5 162.7 94.3"/><polygon class="t" points="161.1 95.2 159.7 96 158.4 95.2 159.7 94.5 161.1 95.2"/><polygon class="t" points="159.4 96.2 158.1 97 156.8 96.2 158.1 95.4 159.4 96.2"/><polygon class="t" points="157.8 97.1 156.4 97.9 155.1 97.1 156.4 96.4 157.8 97.1"/><polygon class="t" points="156.1 98.1 154.8 98.8 153.5 98.1 154.8 97.3 156.1 98.1"/><polygon class="t" points="154.5 99 153.2 99.8 151.8 99 153.2 98.3 154.5 99"/><polygon class="t" points="152.8 100 151.5 100.7 150.2 100 151.5 99.2 152.8 100"/><polygon class="t" points="151.2 100.9 149.9 101.7 148.6 100.9 149.9 100.2 151.2 100.9"/><polygon class="t" points="149.6 101.9 148.3 102.6 146.9 101.9 148.3 101.1 149.6 101.9"/><polygon class="t" points="147.9 102.8 146.6 103.6 145.3 102.8 146.6 102.1 147.9 102.8"/><polygon class="t" points="146.3 103.8 145 104.5 143.7 103.8 145 103 146.3 103.8"/><polygon class="t" points="144.6 104.7 143.3 105.5 142 104.7 143.3 104 144.6 104.7"/><polygon class="t" points="143 105.7 140 107.4 138.7 106.6 141.7 104.9 143 105.7"/><polygon class="t" points="168 93.1 166.3 94.1 165 93.3 166.6 92.4 168 93.1"/><polygon class="t" points="164.3 95.2 163 96 161.7 95.2 163 94.5 164.3 95.2"/><polygon class="t" points="166 94.3 164.7 95 163.3 94.3 164.7 93.5 166 94.3"/><polygon class="t" points="162.7 96.2 151.5 102.6 150.2 101.8 161.4 95.4 162.7 96.2"/><polygon class="t" points="151.2 102.8 149.9 103.6 148.6 102.8 149.9 102 151.2 102.8"/><polygon class="t" points="149.6 103.7 148.2 104.5 146.9 103.7 148.2 103 149.6 103.7"/><polygon class="t" points="147.9 104.7 146.6 105.5 145.3 104.7 146.6 103.9 147.9 104.7"/><polygon class="t" points="146.3 105.6 144.9 106.4 143.6 105.6 144.9 104.9 146.3 105.6"/><polygon class="t" points="144.6 106.6 141.7 108.3 140.3 107.6 143.3 105.8 144.6 106.6"/><polygon class="t" points="136.5 103.8 135.2 104.6 133.8 103.8 135.2 103 136.5 103.8"/><polygon class="t" points="159.4 92.4 158.1 93.2 156.8 92.4 158.1 91.6 159.4 92.4"/><polygon class="t" points="157.8 93.3 156.5 94.1 155.2 93.3 156.5 92.6 157.8 93.3"/><polygon class="t" points="156.2 94.3 154.8 95.1 153.5 94.3 154.8 93.5 156.2 94.3"/><polygon class="t" points="154.5 95.3 153.2 96 151.9 95.3 153.2 94.5 154.5 95.3"/><polygon class="t" points="152.9 96.2 151.5 97 150.2 96.2 151.5 95.4 152.9 96.2"/><polygon class="t" points="151.2 97.2 149.9 97.9 148.6 97.2 149.9 96.4 151.2 97.2"/><polygon class="t" points="149.6 98.1 148.3 98.9 146.9 98.1 148.3 97.3 149.6 98.1"/><polygon class="t" points="148 99 146.7 99.8 145.3 99 146.7 98.3 148 99"/><polygon class="t" points="146.3 100 145 100.7 143.7 100 145 99.2 146.3 100"/><polygon class="t" points="144.7 100.9 143.4 101.7 142 100.9 143.4 100.2 144.7 100.9"/><polygon class="t" points="143 101.9 141.7 102.6 140.4 101.9 141.7 101.1 143 101.9"/><polygon class="t" points="141.4 102.8 140.1 103.6 138.8 102.8 140.1 102.1 141.4 102.8"/><polygon class="t" points="139.7 103.8 138.1 104.7 139.7 105.7 138.4 106.4 135.4 104.7 138.4 103 139.7 103.8"/><polygon class="t" points="149.7 94 148.4 94.7 147.1 94 148.4 93.2 149.7 94"/><polygon class="t" points="148 94.9 146.7 95.7 145.4 94.9 146.7 94.2 148 94.9"/><polygon class="t" points="146.4 95.9 145.1 96.6 143.8 95.9 145.1 95.1 146.4 95.9"/><polygon class="t" points="144.8 96.8 143.4 97.6 142.1 96.8 143.4 96.1 144.8 96.8"/><polygon class="t" points="142.3 98.3 141 99 139.7 98.3 141 97.5 142.3 98.3"/><polygon class="t" points="140.6 99.2 139.3 100 138 99.2 139.3 98.5 140.6 99.2"/><polygon class="t" points="139 100.2 137.7 100.9 136.4 100.2 137.7 99.4 139 100.2"/><polygon class="t" points="137.3 101.1 136 101.9 134.7 101.1 136 100.4 137.3 101.1"/><polygon class="t" points="135.7 102.1 133.3 103.5 132 102.7 134.4 101.3 135.7 102.1"/><polygon class="t" points="149.5 90.9 140.9 95.8 136.9 93.5 145.5 88.6 149.5 90.9"/><polygon class="u" points="129.3 99.4 128.1 100.1 126.9 99.5 128.1 98.7 129.3 99.4"/><polygon class="v" points="130.8 98.6 129.5 99.3 128.3 98.6 129.6 97.9 130.8 98.6"/><path class="w" d="M106,21.1a6.8,6.8,0,0,1-1.2,2.9l-1,2.7.3,3.7,5.8,2.7,4.6.3,2.5-3.8L114,24S106.3,20.8,106,21.1Z" transform="translate(-10.8 -4.5)"/><path class="x" d="M95,31.1l9.8-7.1s-.2,3.8,1.7,5.5,5.2,3.1,6.7,2.3a5.4,5.4,0,0,0,2.1-3s2.4-3.6,3.5-2.5c5.2,10.6.2,18.5,2.1,28.8-.1,2.8-12.2,7.9-20.8,9.7-3,4-5.7,3.6-5.7,3.6.7-5.6-1.9-26.1-1.9-26.1Z" transform="translate(-10.8 -4.5)"/><path class="y" d="M150,84.2c-2.7,5.3,2.2,6.6,3.7,8s6,9.1,10,9.1,2.9-5.8.7-7.7a54.4,54.4,0,0,1-5.7-6.3c-.9-.9-1.2-3-2.9-6.4C154.7,79.7,151.3,82.4,150,84.2Z" transform="translate(-10.8 -4.5)"/><path class="z" d="M113.2,76.1c2.5,3,21.9-14.1,22.6-15.6,1.7,7.4,14.2,23.7,14.2,23.7s5.7,1.1,5.9-2.9S144,50.5,140.5,48.6s-22.1,4-24.7,8.8S112,75.1,113.2,76.1Z" transform="translate(-10.8 -4.5)"/><path class="aa" d="M121.5,13.9c1.8,2.7.4,7.9.4,7.9s-2.5,7.9-2.9,8.8-2.7,1.6-3.7.9-5.2-3.8-5.7-4.3-1-3.1-1-3.1-2.6-.5-2.6-3.9c-.2-1-.4-2.8-.4-2.8l3.8-6.5,7.6-.5A43.6,43.6,0,0,1,121.5,13.9Z" transform="translate(-10.8 -4.5)"/><path class="r" d="M107.7,19.1c2.2,1.6,1.6,3.1,1.6,3.1s1,1.6,1.6,1.1,1.4-3.7,1.4-4.7-1.7-3.5-.4-4.6,5.6,3.4,8.6,1.7-1.9-9-8.8-8.3a7.4,7.4,0,0,0-6.6,6.5c-.9,4.9.8,6.5.8,6.5S106.6,18.3,107.7,19.1Z" transform="translate(-10.8 -4.5)"/><path class="ab" d="M95.8,31.1c-5-.7-4.6,13.8-4,15.5a22.3,22.3,0,0,0,7,3.5C100.1,48.3,103,32.2,95.8,31.1Z" transform="translate(-10.8 -4.5)"/><path class="y" d="M146.2,87.6a45.7,45.7,0,0,1,3.1,5.8s5,7.8,7.5,9.4c.2.2,1,2,0,2.6a7,7,0,0,1-9-.7c-2.1-1.9-7.8-6.5-9.2-9.4s1.5-4.2,1.8-6.1S144.7,85.7,146.2,87.6Z" transform="translate(-10.8 -4.5)"/><path class="ac" d="M100.1,64.8a8.5,8.5,0,0,1-4.4,3.4c1.1,5.7,5.7,12.9,11.8,11.6,4.2-.9,15.4-11.5,15.4-11.5,3,7.2,16,20,17.4,21.3s6.7-1.3,5.9-2.9S132.8,56.8,128.4,56C115,53.6,100.1,64.8,100.1,64.8Z" transform="translate(-10.8 -4.5)"/><path class="ad" d="M181.9,77.4c.2-.1.3-.1.4,0l.8.5-.5.7h-.2v19a.9.9,0,0,1-.5.9l-27.3,15.8-.2.9-.8-.5h0c-.1-.1-.2-.2-.2-.3V94.4a1.6,1.6,0,0,1,.5-.9Z" transform="translate(-10.8 -4.5)"/><path class="s" d="M182.8,77.9c.2-.2.5-.1.5.3V98a1.6,1.6,0,0,1-.5.9l-28,16.1c-.3.2-.5.1-.5-.3V94.9a1.2,1.2,0,0,1,.5-.9Z" transform="translate(-10.8 -4.5)"/><polygon points="159.6 91.4 160.7 89.6 159.1 88.7 156.4 93.3 159.1 94.8 160.7 92 159.6 91.4"/><path class="ae" d="M34,40.8c1.4-4.6,5.3-12.4,3-13.7s-11.3-2.9-11.3-2.9h0s-8.5.7-11.4,2.5,1.6,9.6,3.1,14.1c.4,1.1.3,6,.2,10.4,0,1-.9,6-.8,8s7,4.4,8.9,4.5v-.2c1.9-.1,8.8-3.8,8.8-4.4.2-2.1-.7-7-.7-8.1C33.6,46.8,33.6,41.9,34,40.8Z" transform="translate(-10.8 -4.5)"/><path class="ae" d="M14.8,26.6c-1.7-.1-3.2,1.9-3.3,5.1s.2,5.4.2,6.2-.5,5.9-.4,7.2a2.5,2.5,0,0,0,2.3,2.6c1.2.1,2.6-1.9,3.2-4.2S19.5,26.9,14.8,26.6Z" transform="translate(-10.8 -4.5)"/><path class="g" d="M34.3,26.4c1.5-.7,3.6.5,5,3.4s1.9,5,2.3,5.8,2.6,5.2,3.1,6.5a2.6,2.6,0,0,1-1.1,3.3c-1.1.5-3.2-.8-4.6-2.7S30.1,28.4,34.3,26.4Z" transform="translate(-10.8 -4.5)"/><path class="g" d="M41.3,44.7c-1-.9-1.4-2.2,1-5.3a95.4,95.4,0,0,1,8-8.5L52,32.4a70.3,70.3,0,0,1-3.6,7.9C47.1,42,44.1,47.1,41.3,44.7Z" transform="translate(-10.8 -4.5)"/><path class="q" d="M37.8,27.1A12.9,12.9,0,0,1,40,30.4c.8,1.8,2.8,6.8,2.8,6.8a5.6,5.6,0,0,1-2.5,3l-2.5,1.5s-2.3-4.3-2.5-5S35.4,28.5,37.8,27.1Z" transform="translate(-10.8 -4.5)"/><path class="q" d="M13.8,26.7a5.7,5.7,0,0,0-2.5,2.8c-.6,1.7-.4,11.8-.4,11.8s5.7,1.6,6,1.5.4-.7.4-.7S16.5,27,13.8,26.7Z" transform="translate(-10.8 -4.5)"/><path class="ae" d="M29.2,22.8c-.2-.8-.7-5.1-.7-5.1H22.8s-.4,4.3-.6,5.2-2.6,2.2-2.6,2.2h6.1V25h6S29.4,23.7,29.2,22.8Z" transform="translate(-10.8 -4.5)"/><path class="ae" d="M29,21.6c-.2-1.3-.4-3.2-.5-3.7v-.2H22.8s-.4,4.3-.6,5.2-2.6,2.2-2.6,2.2h.3l5.8-1.6a25.4,25.4,0,0,0,3.3-2Z" transform="translate(-10.8 -4.5)"/><path class="ae" d="M31.9,13.8c-.2,3.6-1.9,7.2-4.2,7.3s-6.2-3.3-6.3-7,2-6.6,5.3-6.7S32.2,10.1,31.9,13.8Z" transform="translate(-10.8 -4.5)"/><path class="g" d="M21.2,54.5c-3.5,0-4.9,2.4-4.8,9.8S17.6,79.8,18.1,81s5.4,1.2,5.9.5S25.7,65.4,25.7,63,24.9,54.5,21.2,54.5Z" transform="translate(-10.8 -4.5)"/><rect class="g" x="18.1" y="78.8" width="5.9" height="8.1" rx="2.1" ry="2.1" transform="translate(-8.9 -5) rotate(1.4)"/><path class="g" d="M20.9,82.4c-1,0-3.7.3-3.5,7.2S20.5,106,20.5,106H23s1.2-12.8,1.2-15.2C24.2,85.2,24.3,82.4,20.9,82.4Z" transform="translate(-10.8 -4.5)"/><path class="g" d="M30.2,54.4c3.5,0,4.8,2.4,4.7,9.8s-1.2,15.5-1.6,16.6-5.4,1.2-5.9.5-1.7-16-1.7-18.5S26.4,54.4,30.2,54.4Z" transform="translate(-10.8 -4.5)"/><rect class="g" x="27.3" y="78.7" width="5.9" height="8.1" rx="2.1" ry="2.1" transform="translate(51.8 160.1) rotate(178.6)"/><path class="g" d="M30.5,82.2c1,0,3.6.4,3.5,7.3s-3.1,16.4-3.1,16.4H28.4s-1.2-12.8-1.2-15.3C27.1,85,27.1,82.2,30.5,82.2Z" transform="translate(-10.8 -4.5)"/><path class="x" d="M17.4,53a86.3,86.3,0,0,0-1.5,9.5c-.1,3.3,1.5,17.8,1.5,19.4s-.1,6.5,0,11.4,1.3,14.3,1.3,14.3l6.2-.2V83.8c0-3.2.8-20,.8-20V53.3Z" transform="translate(-10.8 -4.5)"/><path class="q" d="M37.8,27.1c-.4-.6-2.5-1.1-4.3-1.7a25.7,25.7,0,0,1-3.2-1.2l-4.6,2.7-4.6-2.7a25.7,25.7,0,0,1-3.2,1.2c-1.9.6-4,1.1-4.3,1.7s3,13.7,3.4,14.8-.6,8.8.4,11.1l8.3.3h0L34,53c.7-2.6-.1-10.2.3-11.3S38.1,27.8,37.8,27.1Z" transform="translate(-10.8 -4.5)"/><path class="x" d="M34,53a96,96,0,0,1,1.4,9.5c.2,3.3-1.4,17.8-1.4,19.4s.1,6.5,0,11.4-1.4,14.3-1.4,14.3l-6.2-.2V83.8c0-3.2-.7-20-.7-20V53.3Z" transform="translate(-10.8 -4.5)"/><path class="l" d="M31.7,11.2a5.7,5.7,0,0,0-6.5.6c-.7.5-.1,3.3-.3,3.6s-.8-2.3-1-2c-1,2.1-.6,4.8-.9,4.8s-2.9-4.7-1.2-8.1a5.7,5.7,0,0,1,6.3-3A4.9,4.9,0,0,1,31.7,11.2Z" transform="translate(-10.8 -4.5)"/><path class="ae" d="M24.5,14.5c.1,1,.1,2.4-.4,2.5s-1.1-.7-1.3-1.7.1-1.9.6-2S24.3,13.5,24.5,14.5Z" transform="translate(-10.8 -4.5)"/><path class="af" d="M19.4,107.6s-2.1,2.4-2,3.1a3.1,3.1,0,0,0,2.6,1.8c1.2.1,3.2-1.1,3.5-1.1s.7-4,.7-4Z" transform="translate(-10.8 -4.5)"/><path class="af" d="M31.7,107.6s2.1,2.4,2,3.1a2.9,2.9,0,0,1-2.5,1.8c-1.3.1-3.3-1.1-3.6-1.1s-.7-4-.7-4Z" transform="translate(-10.8 -4.5)"/><path class="ag" d="M27,52.2c-.8-.5-2-1-2.7-1.5s0-2,0-2.8,2.2-2.2,3.7-2.8,4.1-.3,4.7-1.4-1-2-1.7-2-5.2-1.3-5.9-1.2-6,.6-6.8,0-5.1-12.8-5.1-12.8c1,4.1,3.6,13.5,3.8,14.2s-.6,8.8.4,11.1l8.3.3h0L34,53a15.4,15.4,0,0,1-2.6-.5C30.7,52.3,27.8,52.7,27,52.2Z" transform="translate(-10.8 -4.5)"/><path class="o" d="M31.9,65.3c.2,2.2-1,16.9-1,17.7s-.3,23.5-.3,24.5h2s1.3-9.5,1.4-14.3,0-9.8,0-11.4,1.6-16.1,1.4-19.4A96,96,0,0,0,34,53H30l-.2.2S31.8,63.1,31.9,65.3Z" transform="translate(-10.8 -4.5)"/><path class="o" d="M24.7,59.7a2.4,2.4,0,0,0-4.4,1,21,21,0,0,0,0,5.1c.5,2.8,1.3,16.2,1.2,16.6s0,25,0,25h3.4V83.8c0-3.2.8-20,.8-20V61.5Z" transform="translate(-10.8 -4.5)"/><path class="ae" d="M11.8,47.2c.6,1.2,1.8,1.9,5.4.4s11.5-6.1,11.5-6.1l-.9-2s-7.9,1.3-9.9,2S10.2,43.9,11.8,47.2Z" transform="translate(-10.8 -4.5)"/><path class="ae" d="M27.8,39.5a6.7,6.7,0,0,0,1.2-1c.3-.5,2-4.1,2.3-4.1s-.8,5.2-.8,5.4a1.8,1.8,0,0,1-1.8,1.7C27.3,41.6,27.8,39.5,27.8,39.5Z" transform="translate(-10.8 -4.5)"/><path class="h" d="M34,31.6c-1.4-.2-2.8,3.2-3.2,7-.7,6.5-2,8.5.3,9s2.6-2.2,4-7.7S36.7,32,34,31.6Z" transform="translate(-10.8 -4.5)"/><rect class="ah" x="62.6" y="63.4" width="1.2" height="46.46" transform="translate(-6.5 -7.5) rotate(2.8)"/><path class="ai" d="M66.2,62.1a1.8,1.8,0,1,1-3.6-.2,1.9,1.9,0,0,1,1.9-1.8A1.8,1.8,0,0,1,66.2,62.1Z" transform="translate(-10.8 -4.5)"/><rect class="ai" x="61" y="108.1" width="2" height="3.37" rx="0.5" ry="0.5" transform="translate(-5.4 -7.4) rotate(2.8)"/><path class="af" d="M39.5,105.7a4.5,4.5,0,0,1,.7.7c0,.2-.1,2.9-.1,2.9a5.5,5.5,0,0,0-1.3.7c-.5.5-1,1.5-1.7,1.8a4.1,4.1,0,0,1-2.3.3c-.3-.2-.2-.9.3-1.6l1.5-2.5Z" transform="translate(-10.8 -4.5)"/><path class="g" d="M33.9,58.7c-1,1.7-1.2,4.7-1.1,8.7a104.7,104.7,0,0,0,2.3,14.3c.7,3.6,4.2,3.7,4.9,1,.2-.8,2-16.1,2-17.8s0-5-1.1-7S35.5,56.3,33.9,58.7Z" transform="translate(-10.8 -4.5)"/><path class="g" d="M37.7,80.1c1.9,0,2.6,1.1,2.8,6.5s-.7,13.6-1.1,17.8a5.1,5.1,0,0,0,.4,2.1c-.6.1-3.1,1-2.6-.5a7.9,7.9,0,0,0-.2-2c-.8-4-2.7-14.4-2.7-15.9S34.6,80.1,37.7,80.1Z" transform="translate(-10.8 -4.5)"/><path class="h" d="M51.6,31.6c1.3-.3,3.2,3.5,4.1,7.8,1.5,7.5,3.1,9.7.9,10.5s-2.8-2.4-5-8.6S48.9,32.2,51.6,31.6Z" transform="translate(-10.8 -4.5)"/><path class="g" d="M52.1,32.3c-.5-1.1-3.7-1.7-4.8-2.1a37.4,37.4,0,0,0-4.8-.4,36.2,36.2,0,0,0-4.7.4c-1.2.4-4.4,1-4.9,2.1s4.3,13.3,4.3,18.4c0,2.1-4.5,8.4-4,10.4s8.8,4,8.8,4h1s8.2-1.5,8.8-4-2.9-7.8-2.9-9.9C48.9,46,52.9,34,52.1,32.3Z" transform="translate(-10.8 -4.5)"/><path class="g" d="M51.5,58.9c.9,1.7,1,4.7.7,8.7S49.6,81,49.4,81.8c-.8,3.5-4.3,3.5-4.9.8-.2-.8-1.4-16.2-1.3-17.9s.2-4.9,1.4-6.9S50,56.4,51.5,58.9Z" transform="translate(-10.8 -4.5)"/><path class="g" d="M46.7,79.7c-1.9.3-3,1.8-.9,7.1,1,2.6,4.6,1.2,4.8-.3C50.8,83.3,49.7,79.1,46.7,79.7Z" transform="translate(-10.8 -4.5)"/><path class="g" d="M45.1,27.9c-.4-.9-.3-4.4-.3-4.4H40.3a20.1,20.1,0,0,1-.4,4.4c-.3,1-2.1,2.3-2.1,2.3h9.5S45.4,28.9,45.1,27.9Z" transform="translate(-10.8 -4.5)"/><path class="h" d="M44.8,25.9l-2.2-2.4H40.3a20.1,20.1,0,0,1-.4,4.4c-.3,1-2.1,2.3-2.1,2.3h0v.9l7-4.7Z" transform="translate(-10.8 -4.5)"/><path class="aj" d="M52.7,60.9c-.7-4.5-3.6-9-3.8-10.7s2.8-13,2.8-13c-.8-1.7-7-2.6-9.4-2.8s-8.1-.3-8.9,1.5a14.4,14.4,0,0,0,.9,5.9c.7,2.1,2,2.7,1.9,8.3,0,1.7-3.4,7.2-3.8,10.8-.7,5.6-.1,20-.1,20A49.3,49.3,0,0,0,42,82.4a55.7,55.7,0,0,0,13.7-1.7S53.3,65.2,52.7,60.9Z" transform="translate(-10.8 -4.5)"/><path class="aj" d="M48.8,52.5c.2-.7-1.5-7.1-1.7-8.5s-4.6-.6-6.4-.9-4.1.6-5.4-.8-1-7.2-1-7.2l-.9.8a15.6,15.6,0,0,0,.4,5.5c.7,2.4,2.5,3.1,2.4,8.7,0,1.7-3.4,7.2-3.8,10.8-.7,5.6-.1,20-.1,20l2.9.6s.3-20.4,1.6-21.9A14,14,0,0,1,42,56.1C43.2,55.8,48.5,53.2,48.8,52.5Z" transform="translate(-10.8 -4.5)"/><path class="g" d="M37.3,105.6a38.4,38.4,0,0,1-1.5,4.1c-.3.6-.3,1.1.8.8s2.8-2.7,3.2-3.8S37.3,105.6,37.3,105.6Z" transform="translate(-10.8 -4.5)"/><path class="l" d="M45.6,15.9s.4-1,1.5.1,2.5,4.3,2.1,5-1.7.5-1.7.5Z" transform="translate(-10.8 -4.5)"/><path class="g" d="M47,23.3c-1.6,3.1-5.6,4.3-7.2,3.5s-2.3-4.4-1-7.7,4.2-4.4,6.6-3.2S48.6,20.1,47,23.3Z" transform="translate(-10.8 -4.5)"/><path class="l" d="M42.1,17.4c.1,1,.8,1.9,2.8,2.7s1.7,2.9,1.4,3.7-.9,1.6-.9,1.6a5.3,5.3,0,0,0,2.5-6.7c-1.6-4.7-5.7-3.6-5.8-3.3A13.3,13.3,0,0,0,42.1,17.4Z" transform="translate(-10.8 -4.5)"/><path class="l" d="M43.2,16.9a1.8,1.8,0,0,1-1.7,1.3,7.4,7.4,0,0,0-2.8.5s.9-3.4,3.4-3.3S43.2,16.9,43.2,16.9Z" transform="translate(-10.8 -4.5)"/><path class="g" d="M55.4,45.6c1-.6,3.6,1.2,5.4,4.7s5.3,9.6,4.4,10.1-4.3-3.9-7.3-7.2S53.3,47,55.4,45.6Z" transform="translate(-10.8 -4.5)"/><path class="g" d="M62.4,58.3s-.3,1-.3,1.1a13.4,13.4,0,0,1-.1,1.9c-.2.3-.4.5-.4.6s.5.7.9.1.6-1.3.8-1.4,1.1,1.1,1.2,1.4.3,2.5.4,2.6.1.4.2.4l.6-.5H66l.4-.4.5-.5a7,7,0,0,0,.3-1.2,8.5,8.5,0,0,0-.4-2.5,29.9,29.9,0,0,0-2.4-2.5Z" transform="translate(-10.8 -4.5)"/><path class="ai" d="M45.5,86a11.5,11.5,0,0,0,2.8,0,5,5,0,0,0,2.3-1.1s1.2,4.2-1.8,4.7S45.5,86,45.5,86Z" transform="translate(-10.8 -4.5)"/><polygon class="ah" points="37.3 85.1 40.1 101.9 41.2 101.7 38.7 84.8 37.3 85.1"/><path class="ai" d="M52.7,106.1a17.5,17.5,0,0,1,1.9,4.5c.2,1-2,2.4-2.6,2.4s-1.9-1.5-1.9-2.2.2-4.3.2-4.3Z" transform="translate(-10.8 -4.5)"/><path class="ah" d="M52.6,106.2l-2.1.3c-.2.1-.4-.1-.4-.3h0c0-.2.1-.4.3-.4l2.1-.3c.2,0,.4.1.4.3h0C52.9,106,52.8,106.2,52.6,106.2Z" transform="translate(-10.8 -4.5)"/><path class="f" d="M36.2,50.4a29.8,29.8,0,0,0,7.2,1,11.9,11.9,0,0,0,5.5-1.2l.4,1.3a24.4,24.4,0,0,1-6,1,19.8,19.8,0,0,1-7.5-1Z" transform="translate(-10.8 -4.5)"/><path class="aj" d="M37.1,34.5l-.7-3.9a5.3,5.3,0,0,0-2.9,1,7.4,7.4,0,0,0-2.2,2.8l2.1,1.5Z" transform="translate(-10.8 -4.5)"/><path class="aj" d="M48,35.3l1.1-4.6,2.8.7c1.9.9,3,3.7,3,3.7l-3.2,2.1Z" transform="translate(-10.8 -4.5)"/><path class="g" d="M31.2,44.3c-1.3.2-1.9,3.2-1.1,7.1s2.3,10.7,3.4,10.5.7-5.8.7-10.2S33.7,44,31.2,44.3Z" transform="translate(-10.8 -4.5)"/><path class="g" d="M34.3,59.4l.9.7a10.1,10.1,0,0,0,1,1.6l.7.3c0,.1-.1.9-.7.6s-1.2-.9-1.4-.8-.4,1.5-.4,1.8l1,2.4a.5.5,0,0,1,0,.5c-.1.1-.6-.1-.7-.2s-.2.2-.3.2l-.6-.2-.7-.2-.9-.9a13.8,13.8,0,0,1-.9-2.3c0-.4.8-3.4.8-3.4Z" transform="translate(-10.8 -4.5)"/><path class="g" d="M48.3,32.1h0a.6.6,0,0,1-.2-.8l1-1.6a.5.5,0,0,1,.7-.1h0a.6.6,0,0,1,.2.7l-1,1.6A.7.7,0,0,1,48.3,32.1Z" transform="translate(-10.8 -4.5)"/><path class="g" d="M49.3,32.3h0c-.3-.1-.3-.5-.2-.7l1-1.6a.6.6,0,0,1,.7-.2h0a.7.7,0,0,1,.2.7l-1,1.6C49.8,32.4,49.5,32.5,49.3,32.3Z" transform="translate(-10.8 -4.5)"/><path class="g" d="M50.2,32.8h0c-.3-.1-.3-.5-.2-.7l1-1.6a.6.6,0,0,1,.7-.2h0a.7.7,0,0,1,.2.7l-1,1.6A.4.4,0,0,1,50.2,32.8Z" transform="translate(-10.8 -4.5)"/><path class="g" d="M51,33.5h0c-.3-.2-.4-.5-.2-.7l.9-1.6a.5.5,0,0,1,.8-.2h0a.5.5,0,0,1,.1.7l-.9,1.6A.7.7,0,0,1,51,33.5Z" transform="translate(-10.8 -4.5)"/><path class="ak" d="M169.1,154.7c-2.1,1.9-1.1,4.2.9,6.1s14.1,9.3,15,9.2,3.5-3.3,3-4.5-9.9-9.1-11.8-10.3S171.6,152.4,169.1,154.7Z" transform="translate(-10.8 -4.5)"/><path class="ak" d="M185,170.1c2.8,1.3,5-4.8,5.9-7.8s2.8-12,2.8-12l-3.2-1.2a83.7,83.7,0,0,0-7.6,15.2C182.6,165.1,182.1,168.8,185,170.1Z" transform="translate(-10.8 -4.5)"/><path class="ak" d="M196.4,144.8h0a1,1,0,0,0-.9.2l-1.3,2.3a.6.6,0,0,0,.2.8h0a.5.5,0,0,0,.8-.2l1.4-2.2A1,1,0,0,0,196.4,144.8Z" transform="translate(-10.8 -4.5)"/><path class="ak" d="M195.4,144.2h0a.6.6,0,0,0-.8.2l-1.3,2.2a.5.5,0,0,0,.2.8h0a.5.5,0,0,0,.8-.2l1.4-2.2A.6.6,0,0,0,195.4,144.2Z" transform="translate(-10.8 -4.5)"/><path class="ak" d="M194.5,143.6h0a.5.5,0,0,0-.8.2l-1.3,2.2a.5.5,0,0,0,.2.8h0a.5.5,0,0,0,.8-.2l1.3-2.2A.5.5,0,0,0,194.5,143.6Z" transform="translate(-10.8 -4.5)"/><path class="ak" d="M193.6,143.1h0a.7.7,0,0,0-.9.2l-1.3,2.2a.5.5,0,0,0,.2.8h0a.7.7,0,0,0,.9-.2l1.3-2.2A.8.8,0,0,0,193.6,143.1Z" transform="translate(-10.8 -4.5)"/><path class="ak" d="M189.6,151.3a49.6,49.6,0,0,1,.8-5,30.2,30.2,0,0,1,2.5-3.2s.4,1.4,1.1,1.7l2.6.9a21.3,21.3,0,0,1-1.5,3.8,14.7,14.7,0,0,1-1.8,2Z" transform="translate(-10.8 -4.5)"/><path class="ak" d="M171.9,139.9s-5.3,5.9-5.9,6.1-7.2-1-9,.4-1.5,15.4-2.5,19.2-5.2,8.5-7.4,11.6,6.4,12.7,6.8,12.8,5.5-1.3,6.7-2.1,4.9-9.8,6-12.1,5.5-9.8,5.9-10.2a17.5,17.5,0,0,0,3-7,7.6,7.6,0,0,0,.8-2.6c-.3-1.3-3.7-4.5-3.6-5s4.2-5.9,4.2-5.9Z" transform="translate(-10.8 -4.5)"/><path class="ak" d="M157.8,176.1c2.1,1.1,3.9,4.9,3.2,7.6s-16.4,26-18.5,26.7-6.2-2.2-5.7-3.9,9.4-25.5,11.2-27.3S151.4,172.6,157.8,176.1Z" transform="translate(-10.8 -4.5)"/><path class="h" d="M144,209a23.2,23.2,0,0,1-7.1,6.7c-2.4,1.5-5.9,3.3-7.2,2.2s-.9-4.4,1.6-7.7,3.3-3.9,5.9-4.7S145.4,207.2,144,209Z" transform="translate(-10.8 -4.5)"/><polygon class="ak" points="164.6 142.5 159.2 136.9 155.2 141.4 156.4 143.3 164.6 142.5"/><path class="ak" d="M180.8,134.4c-1.5-2-6.5-4.5-9.8-1.5a7.7,7.7,0,0,0-1.8,9,9.1,9.1,0,0,0,3.7,4.4,16.3,16.3,0,0,0,5,1.6c.5-.1,1.7-3.9,1.8-3.9a.7.7,0,0,0,.8-.4c.1-.4.1-3.3.3-3.6S182.5,136.7,180.8,134.4Z" transform="translate(-10.8 -4.5)"/><path class="al" d="M181.6,136.3s-2.7-2.2-7,.5c-1,.5-.1,3.9-.3,4.2s-2.5-2.9-2.5-2.5c.4,3.8-1.1,5.5-1.5,5.5s-3.1-5.8-.8-9.6,6.8-3.3,7.8-2.9S181.4,132.7,181.6,136.3Z" transform="translate(-10.8 -4.5)"/><path class="f" d="M173.5,151.8s.4,4.8-2.2,4.6-6.6-10.6-6.6-10.6h-5.5a3.7,3.7,0,0,0-3.7,2.4c-.8,1.7-2.2,13.3-2.9,16.8s-6.7,8.6-7.5,9.7,8.3,2.7,12.5,5,6.1,3.2,6.1,3.2,2.9-6.5,4.4-8.9,2.8-5.1,3.8-6.8a30.8,30.8,0,0,0,3.5-7.1c.2-.8,1-3,.9-4.1S173.5,151.8,173.5,151.8Zm-11.1,3.1c-3.1,3.6-3.3,5.3-5.6,4.8s-2-3.2-1.1-7,3.4-6.3,5.7-5.7S164.9,152,162.4,154.9Z" transform="translate(-10.8 -4.5)"/><path class="ak" d="M173.4,139.6c.1,1.2,0,2.8-.6,2.9s-1.3-.9-1.5-2.1.3-2.2,1-2.3S173.3,138.4,173.4,139.6Z" transform="translate(-10.8 -4.5)"/><path class="ak" d="M163.2,152.2c.8-2.7-1.2-4.2-3.8-4.8s-16.9-.6-17.6-.1-1.3,4.7-.3,5.4,13.1,2.7,15.4,2.8S162.3,155.4,163.2,152.2Z" transform="translate(-10.8 -4.5)"/><path class="ak" d="M141.7,147.3c-3.1.3-1.8,6.6-1.1,9.7s4,11.7,4,11.7l3.3-.6a83.6,83.6,0,0,0-1.4-17C146.3,150.3,144.8,146.9,141.7,147.3Z" transform="translate(-10.8 -4.5)"/><path class="ak" d="M145.1,174.7h0a.6.6,0,0,0,.6-.6v-2.5a.5.5,0,0,0-.6-.6h0a.6.6,0,0,0-.6.6v2.5C144.5,174.5,144.7,174.8,145.1,174.7Z" transform="translate(-10.8 -4.5)"/><path class="ak" d="M146.2,174.8h0a.6.6,0,0,0,.6-.6v-2.5a.6.6,0,0,0-.6-.6h0a.5.5,0,0,0-.6.6v2.5A.6.6,0,0,0,146.2,174.8Z" transform="translate(-10.8 -4.5)"/><path class="ak" d="M147.3,174.9h0a.6.6,0,0,0,.6-.6v-2.6a.6.6,0,0,0-.6-.6h0a.6.6,0,0,0-.6.6v2.6A.6.6,0,0,0,147.3,174.9Z" transform="translate(-10.8 -4.5)"/><path class="ak" d="M148.4,174.8h0a.6.6,0,0,0,.6-.6v-2.6a.6.6,0,0,0-.6-.6h0a.6.6,0,0,0-.6.6v2.6A.6.6,0,0,0,148.4,174.8Z" transform="translate(-10.8 -4.5)"/><path class="ak" d="M147.5,165.7a40.9,40.9,0,0,1,1.9,4.7,28.5,28.5,0,0,1-.5,4.1s-1.1-1-1.8-.9l-2.6.6a17.3,17.3,0,0,1-.7-4.1,10.2,10.2,0,0,1,.4-2.6Z" transform="translate(-10.8 -4.5)"/><path class="ak" d="M151,181.7c1.2-2,5.1-3.5,7.8-2.6s24.8,18.1,25.3,20.3-2.6,6.1-4.3,5.4-24.8-11.1-26.4-13.1S147.1,187.9,151,181.7Z" transform="translate(-10.8 -4.5)"/><path class="h" d="M184,201c-1.7,4.7-5,7.4-6.1,8.8s-5.1,4.2-7.1,3.1-1.8-3.2,0-6.9,3.9-6.3,6.4-7.4S184.8,198.9,184,201Z" transform="translate(-10.8 -4.5)"/><path class="f" d="M156.6,177.9c-2.8-.7-9.9.9-11.5,5.5s-5.2,14.8-5.2,14.8a18.9,18.9,0,0,0,5.2,2.4,15.5,15.5,0,0,0,4.7.8s11.7-15,12-17.1S159,178.6,156.6,177.9Z" transform="translate(-10.8 -4.5)"/><path class="ai" d="M147.3,175.6s-5,7.3-.6,12.2,18.7,10.4,18.7,10.4,3-6.6,4.7-7.7a5.2,5.2,0,0,1,2.8-1.2s-11.9-9.5-13.6-10.5S147.3,175.6,147.3,175.6Z" transform="translate(-10.8 -4.5)"/><path class="af" d="M166.8,239.4h-.2a34.4,34.4,0,0,1-6.2-2.3c-3-1.4-5.1-3.3-5.9-5.7a8.4,8.4,0,0,1,.3-6.4,9.3,9.3,0,0,1,3.3-3.7c1.8-1.3,4-3,7.2-8.5.3-.4,3.1-5.6,4.5-8.3a.8.8,0,0,1,1-.3.7.7,0,0,1,.3,1c-.1.3-4.2,7.8-4.5,8.3-3.3,5.8-5.8,7.7-7.6,9a7.7,7.7,0,0,0-2.8,3.1,7,7,0,0,0-.3,5.3c.7,2,2.5,3.7,5.1,4.9a41.1,41.1,0,0,0,6,2.2.7.7,0,0,1,.5.9C167.5,239.2,167.2,239.4,166.8,239.4Z" transform="translate(-10.8 -4.5)"/><path class="q" d="M172.2,203.6s.6,2.9,2,3.8,4.9,1,4.9,1,6.1-6,5.6-8.2-5.4-6.3-5.6-6.2-7.7,7-7.5,7.1,1.3.6,1.3.8A14.7,14.7,0,0,1,172.2,203.6Z" transform="translate(-10.8 -4.5)"/><path class="af" d="M121.8,241.5a12.9,12.9,0,0,1-8.5-3.1,11.5,11.5,0,0,1-4.2-8.5,6.2,6.2,0,0,1,1.8-4.9,25.8,25.8,0,0,1,4.6-3.4A58.4,58.4,0,0,0,125,214c.4-.3,4.6-4.4,6.7-6.6a.8.8,0,1,1,1.1,1.1l-6.8,6.6a54.2,54.2,0,0,1-9.7,7.7,29.6,29.6,0,0,0-4.4,3.3,5.1,5.1,0,0,0-1.4,3.8,10.8,10.8,0,0,0,3.7,7.4,11.8,11.8,0,0,0,8.9,2.7.8.8,0,0,1,.9.6c0,.4-.2.8-.6.8Z" transform="translate(-10.8 -4.5)"/><path class="ag" d="M134.2,207.1s2-1.5,2.6-1.8,1.5-2.7,1.5-2.7a20.1,20.1,0,0,0,4.5,3.1,27.2,27.2,0,0,0,3.3.7s-2.6,4.1-3,4.6a30.5,30.5,0,0,1-3.3,2.7s-3.6-1.1-4.3-2.1S134.2,207.1,134.2,207.1Z" transform="translate(-10.8 -4.5)"/><polygon class="q" points="150.3 160.1 159.4 164.1 163.1 157.9 154.1 153.8 150.3 160.1"/><path class="ag" d="M172.1,200.5l1,.5,3.1-1.5-2.5,1.9h5.4l-5.2.8,1.9,1.6-2.2-.9-1,1.4-.4-.7s.8-1.3.7-1.7a5.1,5.1,0,0,0-1.3-.8Z" transform="translate(-10.8 -4.5)"/><path class="ai" d="M172.2,203.6a9.8,9.8,0,0,0,2.9,3.4,16.8,16.8,0,0,0,4,1.4s-8.2,13-12.3,10.9S172.2,203.6,172.2,203.6Z" transform="translate(-10.8 -4.5)"/><path class="p" d="M134.2,207.1a18.5,18.5,0,0,1,2.6-1.8c.6-.1,1.5-2.7,1.5-2.7l.9.8-1,1.9,2.4,1.8-2.9-1,2.4,2.6-3-2.1.5,1.8-1.1-1.6-2.2,1.1Z" transform="translate(-10.8 -4.5)"/><path class="ai" d="M134.2,207.1a11.9,11.9,0,0,0,1.9,4.2,12.6,12.6,0,0,0,3.7,2.4s-11.9,10.2-15.2,7S134.2,207.1,134.2,207.1Z" transform="translate(-10.8 -4.5)"/><path class="l" d="M290.3,146.1c-.1.3-2.8-.2-6-.9s-5.8-1.6-5.8-1.8,2.7.1,6,.9S290.3,145.9,290.3,146.1Z" transform="translate(-10.8 -4.5)"/><polygon class="am" points="277.2 140.7 277 141.4 279.5 141.9 279.6 141.4 277.2 140.7"/><path class="an" d="M290.5,146a1.1,1.1,0,0,1,.7-.1c.4.2.8.4,1,.3l.4-.2s-.1.8-.5.9-1.7-.5-1.7-.5Z" transform="translate(-10.8 -4.5)"/><path class="ao" d="M261.1,229.4c.2,1.8-.6,3.3-.6,3.9a1.6,1.6,0,0,0,1,1.5l3.6.6c1.2.2,4.4,1,5.3.7s2.8-.8,2.7-1.2-2.6-.6-3.8-1.2a25.2,25.2,0,0,1-5.7-4.3A10.5,10.5,0,0,0,261.1,229.4Z" transform="translate(-10.8 -4.5)"/><path class="f" d="M260.9,231.7a6.2,6.2,0,0,0-.4,1.6,1.6,1.6,0,0,0,1,1.5l3.6.6c1.2.2,4.4,1,5.3.7s2.8-.8,2.7-1.2-2.6-.6-3.8-1.2l-1.1.6Z" transform="translate(-10.8 -4.5)"/><path class="o" d="M257.4,175.1c-1.5.5-1.5,9.1-.5,14.7,1.4,7.7,2.2,13.9,2.7,14.3s4.3.4,4.9,0,1.5-21.8,1.6-22.9S263.7,172.9,257.4,175.1Z" transform="translate(-10.8 -4.5)"/><path class="x" d="M259.5,203.1c-2.3,2.5-1.9,9.7-1.6,12.1s3.3,13.6,3.2,14.4,3,.6,3.1.2,0-18.1.2-19.4.4-7,.4-7.5C264.6,200,260.8,201.6,259.5,203.1Z" transform="translate(-10.8 -4.5)"/><path class="o" d="M254.7,170.5a21.7,21.7,0,0,0-2,2.9c-1.7,3,6.9,10.7,7.2,10.9s5.9-1.4,6.2-3.1-.1-2.7.2-5.6C261.5,173.8,259.5,172.3,254.7,170.5Z" transform="translate(-10.8 -4.5)"/><path class="x" d="M254.7,170.5c-3.6,4.1-4.2,7-3.8,11.4.2,2.6.7,7,.9,9,.6,5.5.7,12.9,1.1,13.3s4.4,1.3,5.1.9,5.4-25.5,5.6-26.6,2.6-2.7,2.6-2.7S255.4,169.8,254.7,170.5Z" transform="translate(-10.8 -4.5)"/><path class="ag" d="M275.1,149.7s-2.9-1.1-4,2.7a11.9,11.9,0,0,0-.5,6.3l7.1-.6S278.6,150.7,275.1,149.7Z" transform="translate(-10.8 -4.5)"/><path class="x" d="M253.5,202.5c-3.2,1.1-6.5,7.5-7.5,9.7s-3.9,13.4-4.4,14.1,2.3,2.1,2.6,1.7,9.1-15.6,9.8-16.6,3.9-5.9,4.2-6.4C259.5,202.4,255.4,202,253.5,202.5Z" transform="translate(-10.8 -4.5)"/><path class="ao" d="M241.5,226.3a8.8,8.8,0,0,0-1.8,2.1,2,2,0,0,0,.1,2,13.9,13.9,0,0,0,2.7,2.1c1,.7,3.3,3.2,4.2,3.5s3,.3,3.1-.1-2.2-1.4-2.8-2.6a51,51,0,0,1-2.8-5.3A31.8,31.8,0,0,0,241.5,226.3Z" transform="translate(-10.8 -4.5)"/><path class="h" d="M272.9,150.2c.9.4,1.4-.7,1.8-1.6h0c.1-.5,2.8-5.8,2.8-5.8l-4.6-4.6s-2.2,5.7-2.9,6.5S270.8,149.2,272.9,150.2Z" transform="translate(-10.8 -4.5)"/><path class="q" d="M268.2,170.4a23.3,23.3,0,0,1,5.1-6.2c.5-.2,3.3-2.1,3.9-3.4s-.5-5.2-.6-6-.1-2.9-.3-3.5-1.4-1.9-1.6-2.7-4.1-1.8-4.7-4h-.2a17.3,17.3,0,0,0-5.7,2.7c-2,1.6-.4,8-4.1,15.5a33.9,33.9,0,0,1-5.3,7.6l11.5,5.3C267,173.6,267.8,171.2,268.2,170.4Z" transform="translate(-10.8 -4.5)"/><path class="ao" d="M280.8,134.3c-1.2-1.7-5.4-3.8-8.1-1.2a6.7,6.7,0,0,0-1.4,7.7,8.1,8.1,0,0,0,3,3.7,16,16,0,0,0,4.2,1.3c.4-.1,1.4-3.4,1.5-3.3a.7.7,0,0,0,.6-.4c.1-.4.1-2.8.2-3.1S282.2,136.2,280.8,134.3Z" transform="translate(-10.8 -4.5)"/><path class="af" d="M240.7,227.1l-1,1.3a2,2,0,0,0,.1,2,13.9,13.9,0,0,0,2.7,2.1c1,.7,3.3,3.2,4.2,3.5s3,.3,3.1-.1-2.2-1.4-2.8-2.6a5.2,5.2,0,0,1-1.8-.6C244.7,232.3,240.7,227.2,240.7,227.1Z" transform="translate(-10.8 -4.5)"/><path class="l" d="M281.4,135.6a22,22,0,0,1-4.1,1c-1,.1-2.5,2.9-3.1,3.4a17.6,17.6,0,0,1-2.6,1.4s-1.9-3.2-.4-6.3,3.6-3.5,6-3S280.5,133,281.4,135.6Z" transform="translate(-10.8 -4.5)"/><path class="ag" d="M275.1,163a28,28,0,0,1-5.8-.8c-1.3-.4-5-2-4.7-4s3.6-1.1,3.6-1.1,4.1-10-3.2-10c-3.4,0-3.5,12.1-4.3,14.2s-6,9.2-6,9.2,6.1,3,8.6,4-.9-3.9.3-6,8.4-3.1,8.8-3.5A19.8,19.8,0,0,1,275.1,163Z" transform="translate(-10.8 -4.5)"/><path class="l" d="M273.7,133.9s-.5-3.1-3-2.6-3.8,3.6-3.3,4.9-.1,6.2-.4,6.1-.3.8.4,1a2.4,2.4,0,0,0,3.2-2,7.6,7.6,0,0,1,1.6-3.7Z" transform="translate(-10.8 -4.5)"/><path class="ao" d="M276,139.3c-.1.9-.6,1.6-1.1,1.6s-.8-.9-.6-1.8.6-1.6,1.1-1.5S276.2,138.4,276,139.3Z" transform="translate(-10.8 -4.5)"/><path class="q" d="M266.6,147.2s-2.7-1.4-4.3,2.2-1.2,6.1-1.2,6.1l7.1.4S270,148.6,266.6,147.2Z" transform="translate(-10.8 -4.5)"/><path class="ap" d="M270.6,152.6l4.5.6h1.4s1.5,4.5,1.3,6.6-9.8,13.9-10,14.9-.4,24.7-.6,24.8-11.9.7-12.5.4,4-27,4.3-27.4,10.3-12.5,10.7-13.6A58.4,58.4,0,0,0,270.6,152.6Z" transform="translate(-10.8 -4.5)"/><path class="aq" d="M270.6,152.6s-.8-4.7-1.9-5.9-1.9-.9-1.9-.9l1.2-.5a3.2,3.2,0,0,1,1.7,1.1c.5.9,2.2,6.4,2.2,6.4Z" transform="translate(-10.8 -4.5)"/><path class="aq" d="M276.5,153.2a5.7,5.7,0,0,0-.5-3,3,3,0,0,0-1.1-1.2,4.3,4.3,0,0,1,1,2.1,11.6,11.6,0,0,1,0,2.1Z" transform="translate(-10.8 -4.5)"/><path class="aq" d="M259.8,171.5l-4.7-1.5-.8,1,4.4,2.6Z" transform="translate(-10.8 -4.5)"/><path class="ar" d="M275.9,153.2s1.5,4.8.6,6.2-10.2,13.8-10.2,15.1-1.2,25.2-1.2,25.2l2.1-.2s.3-23,1.1-25,8.7-12.4,9.4-14.3-1.2-7-1.2-7Z" transform="translate(-10.8 -4.5)"/><path class="as" d="M292.6,146s-.5.3-.7.2h-.2v1S292.5,147.2,292.6,146Z" transform="translate(-10.8 -4.5)"/><rect class="ag" x="289.9" y="135.9" width="0.8" height="43.16" transform="translate(34.7 -68.8) rotate(13.7)"/><polygon class="at" points="278.7 230.6 276.8 230.6 288.9 117.9 290.9 117.9 278.7 230.6"/><polygon class="at" points="303.3 230.6 301.8 230.6 287.9 130.6 289.5 130.6 303.3 230.6"/><rect class="au" x="272" y="174" width="25.8" height="2.44"/><rect class="au" x="282" y="130.6" width="8.2" height="2.58"/><rect class="au" x="272" y="173.4" width="1.9" height="1.31"/><rect class="au" x="275" y="173.4" width="1.9" height="1.06"/><rect class="au" x="284.8" y="132.8" width="1.3" height="1.17"/><rect class="au" x="282" y="132.8" width="1.3" height="1.17"/><polygon class="av" points="282.6 176.5 284.6 176.5 284 182.2 282 182.3 282.6 176.5"/><polygon class="av" points="294.3 176.5 295 181.9 296.6 181.9 295.8 176.5 294.3 176.5"/><polygon class="av" points="287.3 133.2 289.8 133.2 290.7 139.7 289.2 139.7 288.8 137.1 288.5 139.7 286.6 139.7 287.3 133.2"/><path class="af" d="M271.9,92.2a7.9,7.9,0,0,1,1,3.2c.1.8-.4,2.7-1,2.7a48.9,48.9,0,0,0-5.4.3c-1.7.2-2.3,1.2-6.7,1.2-1.3,0-3.6-.1-3.5-.6s4.2-1.5,5.5-2.7c3.4-3.2,5.6-3.9,5.6-3.9S271.8,92.1,271.9,92.2Z" transform="translate(-10.8 -4.5)"/><rect class="af" x="267.7" y="98.1" width="4.4" height="0.83" transform="translate(528.9 192.5) rotate(180)"/><path class="af" d="M285.7,56.4s-15.3,4.1-17.2,6.2-3.3,30.3-3.3,30.3,1.1,1,4.1,1.3a18.3,18.3,0,0,0,4,0s1.4-18.7,1.9-21.8,1.4-6,1.4-6,19.1-.9,20.4-2.1c7.5-6.4-.7-10.1-.7-10.1l-10.7.7Z" transform="translate(-10.8 -4.5)"/><path class="g" d="M286.9,27.2c2.1,1.7,1.3,3.9-.4,5.9s-12.1,10.4-13.7,10.2-3.4-1.9-3-3.1,8.8-9.5,10.5-10.9S284.4,25.3,286.9,27.2Z" transform="translate(-10.8 -4.5)"/><path class="g" d="M274,40.9c1.3,2.6-4.4,4.8-7.3,5.8s-11.1,2.4-11.1,2.4l-1.3-2,14.9-7.3C270,39.5,272.7,38.2,274,40.9Z" transform="translate(-10.8 -4.5)"/><path class="ag" d="M287,26.7c2,1.4,3.1,3.3-2.6,8.8s-7.1,6.6-7.1,6.6-3.2-1.4-4.3-2.7a5.4,5.4,0,0,1-1.3-2s7-8.2,10.4-10.2S285.9,26,287,26.7Z" transform="translate(-10.8 -4.5)"/><path class="g" d="M292.3,13.9s1.5,7.6,2,7.9,4.9,1.9,6.2,3.7S299.2,39,299,42.7s2.8,11.2,3.9,14.7-10,7.3-10.4,7.3a22.3,22.3,0,0,1-6.2-3.7c-.9-1-.7-10.3-1.1-12.6s-2.1-10.3-2.3-10.9a16.8,16.8,0,0,1-.7-7.1,6.7,6.7,0,0,1,.1-2.5c.6-1.1,4.6-3,4.6-3.5s-.5-7.2-.5-7.2Z" transform="translate(-10.8 -4.5)"/><rect class="af" x="267.6" y="100" width="4.4" height="0.86" transform="translate(523.4 209.8) rotate(-177.1)"/><path class="af" d="M272.3,94.2a8.5,8.5,0,0,1,.7,3.3c0,.9-.7,2.8-1.2,2.7a48.7,48.7,0,0,0-5.4-.1c-1.7.1-2.4,1-6.8.6-1.3-.1-3.6-.4-3.5-.9s4.4-1.2,5.8-2.3c3.6-3,5.9-3.6,5.9-3.6A35.2,35.2,0,0,1,272.3,94.2Z" transform="translate(-10.8 -4.5)"/><path class="f" d="M302.5,53.7a21.9,21.9,0,0,1,.6,7c-.4,3.1-2.1,6.8-9.4,7.5l-12.1,1.1c-.2,0-1.1,4.9-2.2,9.1s-6,17-6,17a23.9,23.9,0,0,1-4.5.5c-2.9,0-3.8-1-3.8-1s5.6-26.8,6.3-29.1,14.1-7.2,14.1-7.9,0-3.4,0-3.4Z" transform="translate(-10.8 -4.5)"/><path class="q" d="M294.3,21.8l-6.5,5.6-.9-3s-4.2,2.4-4.6,3.5a18.9,18.9,0,0,0-.5,3.9,40.6,40.6,0,0,0,1.2,7.4c.4,1.8.7,4.1,1.5,7.2s-.5,7.5.8,9.7c.1.2,3,0,6.9-.8s10.1-1.3,10.3-1.5-2.8-9.4-2.7-10.2,1.7-14.3,1.5-16.1a4.9,4.9,0,0,0-2.5-3.5A41.7,41.7,0,0,0,294.3,21.8Z" transform="translate(-10.8 -4.5)"/><path class="ag" d="M287.3,41.9c1-.9,6-1.2,8.3-2.4s-1-12.6-1-12.6,2.6-2.2,3.6-2c3.7.7,2.9,6.6,2.9,6.6-.4,3.9-1.3,11.7-1.3,12.1s3.5,9.4,2.7,10.2l-3.6.5-7.5,1.1a49.1,49.1,0,0,0-.2-6.1C291,47.4,286.3,42.8,287.3,41.9Z" transform="translate(-10.8 -4.5)"/><polygon class="h" points="281 11 275.6 15.4 275.9 17.2 281.4 17.4 282.9 15.9 281.6 10.6 281 11"/><path class="g" d="M285.4,6.7c1.8-1.6,7.1-3,9.5.6a7.8,7.8,0,0,1-.4,9.1,8.8,8.8,0,0,1-4.3,3.4c-.4.2-4.3.7-5,.4s-.8-4.1-.9-4.1-.6-.2-.6-.5.6-3.3.5-3.6S283.3,8.5,285.4,6.7Z" transform="translate(-10.8 -4.5)"/><path class="l" d="M284.3,8.4s2.9-1.6,6.4,1.9c.8.7-.8,3.8-.7,4.1s3-2.2,2.9-1.8c-1.2,3.5-.2,5.5.2,5.5s4.1-4.8,2.8-8.9a6.7,6.7,0,0,0-6.6-4.6C288.3,4.8,282.7,4.8,284.3,8.4Z" transform="translate(-10.8 -4.5)"/><path class="g" d="M291.2,13.3c-.4,1.1-.7,2.6-.1,2.9s1.4-.6,1.8-1.7.2-2.2-.4-2.4S291.5,12.2,291.2,13.3Z" transform="translate(-10.8 -4.5)"/><polygon class="ag" points="277.1 21.2 276.9 22.8 278.5 21.5 277.1 21.2"/><polygon class="ag" points="276.9 22.8 276.6 21.2 276.1 22 276.9 22.8"/><path class="h" d="M252,50.2h0a.5.5,0,0,1,.2-.6l1.9-.7a.4.4,0,0,1,.6.3h0a.5.5,0,0,1-.2.6l-1.9.7A.5.5,0,0,1,252,50.2Z" transform="translate(-10.8 -4.5)"/><path class="h" d="M251.6,49.4h0a.4.4,0,0,1,.2-.6l1.9-.8a.4.4,0,0,1,.6.3h0a.4.4,0,0,1-.3.6l-1.8.7A.4.4,0,0,1,251.6,49.4Z" transform="translate(-10.8 -4.5)"/><path class="h" d="M251.2,48.6h0a.4.4,0,0,1,.3-.6l1.8-.8a.4.4,0,0,1,.6.3h0a.5.5,0,0,1-.2.6l-1.9.7A.5.5,0,0,1,251.2,48.6Z" transform="translate(-10.8 -4.5)"/><path class="h" d="M250.9,47.8h0c-.1-.2.1-.5.3-.6l1.9-.8c.2-.1.5.1.6.3h0a.4.4,0,0,1-.3.6l-1.8.8A.8.8,0,0,1,250.9,47.8Z" transform="translate(-10.8 -4.5)"/><path class="g" d="M257.7,45.7a27.2,27.2,0,0,0-3.9.1,17,17,0,0,0-2.8,1.5s1.1.5,1.2,1.1a13.6,13.6,0,0,1,.4,2,16.7,16.7,0,0,0,3.1-.7,7.8,7.8,0,0,0,1.7-1.1Z" transform="translate(-10.8 -4.5)"/><path class="g" d="M255.7,49.7a7.8,7.8,0,0,1-1.9.6h-1.7c-.3.1-.3-.2-.4-.1h-.5c-.3,0-1.2-.9-1.4-1s-.9-1.1-.8-1.2.5-.2,1,.2,1.2.9,1.1.7a2.8,2.8,0,0,1-.4-1.2c-.1-.2.1-.3.3-.3l.6.5s.1-.4.2-.4.5.4.7.5.1-.4.2-.4.8,1.3,1.3,1.1S255.4,49,255.7,49.7Z" transform="translate(-10.8 -4.5)"/><polygon class="aw" points="292 50.6 291.7 49.2 274.4 51.5 274.6 53 292 50.6"/><path class="ax" d="M287,57.4h-.8c-.4,0-.8-.2-.8-.6h0a.8.8,0,0,1,.6-.9h.8a.8.8,0,0,1,.8.7h0C287.7,56.9,287.4,57.3,287,57.4Z" transform="translate(-10.8 -4.5)"/><polygon class="f" points="278 22.1 275.9 22 276.2 24 277.3 24.1 278 22.1"/><path class="x" d="M288.1,28.6a57.3,57.3,0,0,0-.4,9.5c.3,4,.2,15.9.2,15.9l-1.6,3-1.4-2.9s1-11.7,1.1-16.1,1-9.5,1-9.5Z" transform="translate(-10.8 -4.5)"/><polygon class="ay" points="284.2 17.5 282.9 15.9 277.1 21.2 278 23 284.2 17.5"/><polygon class="ay" points="276.6 21.2 276 19 275.1 20.1 275.8 22.7 276.6 21.2"/><path class="az" d="M297.2,98.5h23.6a1.1,1.1,0,0,0,1-1,1.1,1.1,0,0,0-1-1.1h-23l-12.3-7.7a1,1,0,1,0-1.1,1.7Z" transform="translate(-10.8 -4.5)"/><path class="ba" d="M313.3,28.4a1,1,0,0,0,1-.8,2.3,2.3,0,0,1,2.3-2h4.3a1,1,0,0,0,0-2h-4.3a4.2,4.2,0,0,0-4.3,3.7,1,1,0,0,0,.9,1.1Z" transform="translate(-10.8 -4.5)"/><rect class="bb" x="283.2" y="69.3" width="2" height="31.15" transform="translate(557.4 165.2) rotate(180)"/><path class="bb" d="M273.8,102.9l11-34.5a1,1,0,0,0-.6-1.3,1,1,0,0,0-1.3.7l-10.6,33.1H258.8a1.1,1.1,0,0,0-1.1,1.1,1.1,1.1,0,0,0,1.1,1Z" transform="translate(-10.8 -4.5)"/><path class="bb" d="M284.1,67.7h1.4V52.8a1.4,1.4,0,0,1,1.4-1.4h1.7V50h-1.7a2.9,2.9,0,0,0-2.8,2.8Z" transform="translate(-10.8 -4.5)"/><path class="bc" d="M282.9,69.9h27.5V66.2H282.9a1.9,1.9,0,0,0-1.8,1.9h0A1.8,1.8,0,0,0,282.9,69.9Z" transform="translate(-10.8 -4.5)"/><rect class="bb" x="309.7" y="46.6" width="2" height="50.83" transform="translate(610.4 139.6) rotate(180)"/><rect class="az" x="296.5" y="67.8" width="2" height="29.74" transform="translate(584.1 160.7) rotate(180)"/><circle class="f" cx="273.3" cy="95.5" r="2.4"/><path class="bd" d="M308,84.1l2.6-21.4,2.6,21.5-2.6,21.1Zm.4,0,2.2,18.4,2.3-18.3-2.3-18.7Z" transform="translate(-10.8 -4.5)"/><path class="bd" d="M308.2,83.2,317.9,64,313,85l-9.6,19Zm.3.2-4.2,18,8.4-16.5L317,66.6Z" transform="translate(-10.8 -4.5)"/><path class="bd" d="M308.6,82.4l15.7-14.7L312.5,85.8l-15.6,14.5Zm.2.3L298.7,98.2l13.5-12.6,10.3-15.8Z" transform="translate(-10.8 -4.5)"/><path class="bd" d="M309.2,81.8l19.9-8.5-17.3,13-19.6,8.3Zm.2.3L294.6,93.2l17-7.2,15-11.2Z" transform="translate(-10.8 -4.5)"/><path class="bd" d="M310.1,81.5l21.5-1.2-20.7,6.3-21.2,1.1Zm0,.3-17.7,5.4,18.5-1,17.9-5.4Z" transform="translate(-10.8 -4.5)"/><path class="bd" d="M310,86.5l-20.3-6.2L311,81.4l20.6,6.3Zm.1-.3,18.7,1-17.9-5.4-18.5-1Z" transform="translate(-10.8 -4.5)"/><path class="bd" d="M309.2,86.2l-17-12.9,19.6,8.4,17.3,13Zm.2-.3,17.2,7.3L311.6,82l-17-7.3Z" transform="translate(-10.8 -4.5)"/><path class="bd" d="M308.5,85.5,296.9,67.7l15.6,14.5,11.8,18.1Zm.3-.2,13.7,12.9L312.3,82.5,298.7,69.8Z" transform="translate(-10.8 -4.5)"/><path class="bd" d="M308.1,84.7,303.4,64,313,83l4.9,21Zm.4-.1,8.5,16.8-4.3-18.3-8.4-16.5Z" transform="translate(-10.8 -4.5)"/><rect class="f" x="310.6" y="27.2" width="2.6" height="19.76" transform="translate(604.8 112.5) rotate(-172)"/><path class="f" d="M317.7,26.2h6.1a1.6,1.6,0,0,0,1.6-1.6h0a1.6,1.6,0,0,0-1.6-1.6h-6.1a1.6,1.6,0,0,0-1.6,1.6h0A1.6,1.6,0,0,0,317.7,26.2Z" transform="translate(-10.8 -4.5)"/><rect class="f" x="283.8" y="95.5" width="0.8" height="9.13" transform="translate(557.4 195.6) rotate(180)"/><rect class="f" x="283.8" y="95.5" width="0.8" height="9.13" transform="translate(403.5 367.2) rotate(-135)"/><rect class="f" x="283.8" y="95.5" width="0.8" height="9.13" transform="translate(173.2 379.7) rotate(-90)"/><rect class="f" x="283.8" y="95.5" width="0.8" height="9.13" transform="translate(1.6 225.6) rotate(-45)"/><rect class="be" x="283.8" y="54.2" width="25.9" height="9.79" transform="translate(582.6 113.6) rotate(180)"/><circle class="f" cx="299.8" cy="79.6" r="2.4"/><path class="af" d="M310.6,64.5A19.7,19.7,0,1,1,291,84.1a19.7,19.7,0,0,1,19.6-19.6Zm0-2.7A22.4,22.4,0,1,0,333,84.1a22.3,22.3,0,0,0-22.4-22.3Z" transform="translate(-10.8 -4.5)"/><path class="af" d="M284.1,96.3a3.8,3.8,0,1,1,0,7.5,3.8,3.8,0,0,1,0-7.5Zm0-2.7a6.5,6.5,0,1,0,6.5,6.5,6.5,6.5,0,0,0-6.5-6.5Z" transform="translate(-10.8 -4.5)"/><rect class="af" x="287" y="48.9" width="22.7" height="3.51" transform="translate(585.8 96.8) rotate(180)"/><path class="g" d="M298,25.1c2.7.2,3.3,2.4,3,5.1s-5.4,15.2-5.7,16c-2.2,4.8-5.4,2.2-5.3-1.4,0-1.2,3.1-12.3,3.7-14.4S294.9,24.8,298,25.1Z" transform="translate(-10.8 -4.5)"/><path class="g" d="M293.8,45.4c2.1,2-1.9,6.3-4.2,8.2s-9.5,6.7-9.5,6.7l-1.5-2.1s9.5-12.1,10.1-12.6S291.6,43.4,293.8,45.4Z" transform="translate(-10.8 -4.5)"/><path class="q" d="M299.5,25.2c-2.1-1.2-4.3-1.3-6.6,6.3s-2.7,9.4-2.7,9.4a17.1,17.1,0,0,0,4.3,2.5,4.9,4.9,0,0,0,2.4.3s4.8-12.1,4.7-14.6S300.7,25.8,299.5,25.2Z" transform="translate(-10.8 -4.5)"/><path class="g" d="M278.6,58.2s-3.8,1.2-4.2,1.7a25.5,25.5,0,0,0-2.8,5.4c.7.3,1.2,0,2.4-1.6s4.6-1.2,5.5-1.9a3.9,3.9,0,0,0,1.2-1.9Z" transform="translate(-10.8 -4.5)"/><path class="ae" d="M242.8,59.4a21,21,0,0,1,3,3.3c.3.8-.5,5-.7,5s-.3-2.9-.7-3.5-2.2-.7-2.8-1.3a7.8,7.8,0,0,1-1.2-2.7Z" transform="translate(-10.8 -4.5)"/><path class="af" d="M238,95.1a9.2,9.2,0,0,0-1.1,3.3c-.1.9.5,2.8,1.1,2.8a50.7,50.7,0,0,1,5.5.3c1.8.3,2.5,1.3,7.1,1.3,1.3,0,3.7-.1,3.6-.7s-4.3-1.5-5.7-2.8c-3.5-3.3-5.9-4.1-5.9-4.1A34.9,34.9,0,0,0,238,95.1Z" transform="translate(-10.8 -4.5)"/><rect class="af" x="226.9" y="96.7" width="4.6" height="0.86"/><path class="af" d="M226.5,57.8s17.2,5.6,17.9,6.4.3,31.9.3,31.9-1.2,1.1-4.3,1.3a12.8,12.8,0,0,1-4.1,0s-1.1-16-1.3-20.6c0-2.6.7-7.9.7-7.9s-19.6-1.7-21-2.8c-7.8-6.8.8-10.6.8-10.6l11.1.8Z" transform="translate(-10.8 -4.5)"/><path class="ag" d="M229,27.1c-2.8.2-3.5,2.6-3.1,5.3s4.4,16,6,16.7,4,.4,4.3-.9-2.1-13.3-2.8-15.5S232.2,26.9,229,27.1Z" transform="translate(-10.8 -4.5)"/><path class="ae" d="M222.4,14.3s-2.3,7.6-2.7,8.1-4.9,1.9-6.4,3.7.1,13.7.1,17.6-2.7,11.6-4,15.1,8.7,8.1,9.1,8.2a26.4,26.4,0,0,0,6.7-3.4c1-1,1.5-10.6,2-13s3-10.6,3.2-11.1a15.8,15.8,0,0,0,1.3-7.4c0-.8.4-2.1.1-2.6s-4.5-3.4-4.5-3.9,1-7.5,1-7.5Z" transform="translate(-10.8 -4.5)"/><rect class="af" x="221.5" y="99" width="4.6" height="0.89"/><path class="af" d="M232.5,97.2a9.6,9.6,0,0,0-1.1,3.4c0,.9.5,2.9,1.1,2.9a54,54,0,0,1,5.6.3c1.8.3,2.4,1.4,7,1.4,1.3,0,3.7-.1,3.7-.7s-4.4-1.6-5.8-2.9c-3.5-3.4-5.8-4.2-5.8-4.2A36.2,36.2,0,0,0,232.5,97.2Z" transform="translate(-10.8 -4.5)"/><path class="q" d="M219.7,22.4l6.4,6.1,1.2-2.9s4.1,1.6,4.5,2.7a32.5,32.5,0,0,1,.2,5.3,40.4,40.4,0,0,1-1.7,7.6c-.6,1.8-1.1,4.2-2.1,7.3a74.3,74.3,0,0,0-1.8,8.7,12,12,0,0,1-6.9,0c-4.5-1.2-9.4-1.7-9.5-2s2.2-6.9,2.5-10.7c0-.8-.4-15.3-.1-17.1a3.8,3.8,0,0,1,3-3.2A32.4,32.4,0,0,0,219.7,22.4Z" transform="translate(-10.8 -4.5)"/><path class="ag" d="M222,34.8c-1.7-7.8-3.1-8.8-4-9.5s-4.5-1.6-5.6,2.1c-.5,1.7.1,16.3.1,17.1-.3,3.8-3.3,9.8-2.5,10.7s4,.7,8.1,1.7l7.5.6.8-.3a74.3,74.3,0,0,1,1.8-8.7l1.3-4.5h0S223.6,42.6,222,34.8Z" transform="translate(-10.8 -4.5)"/><path class="f" d="M210.1,55.3a20.6,20.6,0,0,0-.8,7.2c.5,3.2,1.3,6.9,8.9,7.6l12.6,1.1c.2.1-.6,6.6-.3,11.1s.9,16.7.9,16.7a24.8,24.8,0,0,0,4.7.5c3,.1,4-1,4-1s2-28.6,1.3-30.9c-1.2-4-14-7.3-14.5-8s-.3-3.3-.3-3.3Z" transform="translate(-10.8 -4.5)"/><polygon class="bf" points="212 11.4 217.3 15.6 216.8 18.3 211.1 18 209.2 17.2 211.3 11 212 11.4"/><path class="ae" d="M229.2,6.6c-1.9-1.6-7.4-2.9-9.8.8a8.2,8.2,0,0,0,.5,9.5,9.2,9.2,0,0,0,4.6,3.5c.4.1,4.4.6,5.2.3s.7-4.3.9-4.3.6-.2.6-.6-.7-3.3-.6-3.6S231.5,8.5,229.2,6.6Z" transform="translate(-10.8 -4.5)"/><path class="l" d="M230.4,8.3s-3.1-1.5-6.6,2.2c-.8.8.9,3.9.8,4.2s-3.2-2.2-3-1.8c1.3,3.6.2,5.7-.1,5.8s-4.4-5-3.2-9.3a6.7,6.7,0,0,1,6.8-4.8C226.2,4.7,229.4,4.8,230.4,8.3Z" transform="translate(-10.8 -4.5)"/><path class="ae" d="M223.4,13.6c.4,1.2.7,2.8,0,3s-1.4-.6-1.8-1.7-.3-2.3.3-2.6S223,12.4,223.4,13.6Z" transform="translate(-10.8 -4.5)"/><polygon class="ag" points="215.3 22.3 215.3 24 213.8 22.6 215.3 22.3"/><path class="ag" d="M231.8,45.4c-2.7,1.3.6,6.4,2.4,8.8s6.6,7.6,6.6,7.6l2.8-1.7-7.1-12.7C236,46.7,234.5,44.1,231.8,45.4Z" transform="translate(-10.8 -4.5)"/><polygon class="ag" points="215.3 24 215.8 22.4 216.2 23.2 215.3 24"/><polygon class="aw" points="199.2 50.7 198.7 52.5 215.8 53.7 215.8 51.8 199.2 50.7"/><path class="ax" d="M225.7,58.2h-.6a1.1,1.1,0,0,1-1-1h0a1,1,0,0,1,1-1h.6a1,1,0,0,1,1,1h0A1.1,1.1,0,0,1,225.7,58.2Z" transform="translate(-10.8 -4.5)"/><polygon class="f" points="214.3 23.3 216.4 23.2 216.2 25.2 215 25.3 214.3 23.3"/><path class="x" d="M225.9,29.8a57.3,57.3,0,0,1,.4,9.5l-1.2,16,1.6,2.9,1.4-2.9s0-11.7-.1-16.1-1-9.5-1-9.5Z" transform="translate(-10.8 -4.5)"/><polygon class="ay" points="208.1 18.2 209.5 16.3 215.3 22.3 214.2 24.1 208.1 18.2"/><polygon class="ay" points="215.8 22.4 216.6 20.1 217.4 21.3 216.5 23.9 215.8 22.4"/><path class="q" d="M227.1,40.9c-1.1,2.8,4.8,5,7.8,5.7l11.9,2,1.1-3.9-16-5.5C231.1,39,228.2,38,227.1,40.9Z" transform="translate(-10.8 -4.5)"/><path class="ae" d="M253.8,49.3h0c.1-.3-.1-.5-.4-.6l-2.1-.6c-.2-.1-.5.1-.6.3h0a.6.6,0,0,0,.3.7l2.2.6A.6.6,0,0,0,253.8,49.3Z" transform="translate(-10.8 -4.5)"/><path class="ae" d="M254.1,48.4h0a.4.4,0,0,0-.3-.6l-2.1-.6a.6.6,0,0,0-.7.3h0a.7.7,0,0,0,.4.7l2.1.6C253.8,48.8,254.1,48.7,254.1,48.4Z" transform="translate(-10.8 -4.5)"/><path class="ae" d="M254.4,47.5h0a.5.5,0,0,0-.3-.6l-2.1-.6a.6.6,0,0,0-.7.3h0a.7.7,0,0,0,.4.7l2.1.6C254.1,48,254.3,47.8,254.4,47.5Z" transform="translate(-10.8 -4.5)"/><path class="ae" d="M254.6,46.6h0c.1-.2-.1-.5-.3-.6l-2.1-.6a.6.6,0,0,0-.7.4h0a.6.6,0,0,0,.4.6l2.1.6C254.3,47.1,254.5,46.9,254.6,46.6Z" transform="translate(-10.8 -4.5)"/><path class="ae" d="M247,45.2a23.3,23.3,0,0,1,4.3-.4,22.8,22.8,0,0,1,3.2,1.3s-1.1.7-1.2,1.3a23,23,0,0,0-.1,2.3,22.6,22.6,0,0,1-3.5-.4,10.6,10.6,0,0,1-2-1Z" transform="translate(-10.8 -4.5)"/><polygon class="ay" points="236.9 44.6 233.9 43.9 235 39.2 237.9 40 236.9 44.6"/><path class="q" d="M214.3,25.6c-2.3,1.6-1.6,4,.2,6.2s13.2,12,14.1,12,4.4-2.8,4-4.1-9.6-9.8-11.4-11.4S217,23.7,214.3,25.6Z" transform="translate(-10.8 -4.5)"/><path class="ae" d="M241.3,62.5a3,3,0,0,0,.6,1.1c.3.4,1.7.9,1.9,1.2s.4.2.4,0a1,1,0,0,0-.5-1.2c-.5-.4-.4-.7-.5-1.3S241.4,60.9,241.3,62.5Z" transform="translate(-10.8 -4.5)"/><polygon class="q" points="229.7 58.1 228.2 55.6 231.7 53.6 233.3 56 229.7 58.1"/><rect class="bg" x="214.8" y="70.8" width="4.1" height="29.26" transform="translate(422.8 166.3) rotate(180)"/><rect class="bg" x="204.7" y="63" width="2.3" height="8.14" transform="translate(400.9 129.5) rotate(180)"/><rect class="f" x="204.7" y="67.7" width="27.1" height="5.9" rx="1.5" ry="1.5" transform="translate(425.8 136.8) rotate(180)"/><rect class="f" x="201.3" y="29.4" width="4.3" height="36.26" rx="1.3" ry="1.3" transform="translate(400.2 66.4) rotate(173.3)"/><path class="bh" d="M202.2,30.5h0a.6.6,0,0,1,.7.6l3.8,32a.8.8,0,0,1-.6.8h0a.8.8,0,0,1-.8-.7l-3.7-32A.6.6,0,0,1,202.2,30.5Z" transform="translate(-10.8 -4.5)"/><circle class="f" cx="216.6" cy="98.9" r="2.4"/><circle class="f" cx="194.9" cy="98.9" r="2.4"/><path class="bg" d="M202.5,102.1h28.6a2,2,0,0,0-2-2H204.5a2,2,0,0,0-2,2Z" transform="translate(-10.8 -4.5)"/><rect class="bi" x="215.4" y="73.3" width="1" height="26.71" transform="translate(421.1 168.9) rotate(180)"/></g></svg>